<?xml version="1.0" encoding="utf-8"?>
<!-- Generator: Adobe Illustrator 27.7.0, SVG Export Plug-In . SVG Version: 6.00 Build 0)  -->
<svg version="1.1" xmlns="http://www.w3.org/2000/svg" xmlns:xlink="http://www.w3.org/1999/xlink" x="0px" y="0px"
	 viewBox="0 0 72 72" style="enable-background:new 0 0 72 72;" xml:space="preserve">
<style type="text/css">
	.st0{display:none;}
	.st1{display:inline;}
	.st2{fill:#F3C5B1;}
	.st3{fill:#A1D6F4;}
	.st4{fill:#F9E875;}
	.st5{fill-rule:evenodd;clip-rule:evenodd;fill:#F3C5B1;}
	.st6{fill-rule:evenodd;clip-rule:evenodd;fill:#A1D6F4;}
</style>
<g id="Layer_1" class="st0">
	<g class="st1">
		<g>
			<g>
				<path class="st2" d="M36,35.98L2.4,48.88c-0.57-1.48-1.11-3.25-1.47-4.8L36,35.98z"/>
			</g>
		</g>
		<g>
			<g>
				<path class="st3" d="M36,35.98L3.12,50.62c-0.32-0.73-0.44-1-0.72-1.74L36,35.98z"/>
			</g>
		</g>
		<g>
			<g>
				<path class="st4" d="M36,35.98L0.93,44.08C-3.54,24.72,8.53,5.4,27.9,0.93s38.69,7.6,43.17,26.96
					c4.47,19.36-7.6,38.68-26.97,43.15c-17.04,3.93-33.86-4.45-40.98-20.42L36,35.98z"/>
			</g>
		</g>
	</g>
	<g class="st1">
		<g>
		</g>
		<g>
		</g>
		<g>
		</g>
	</g>
</g>
<g id="Layer_2">
	<g>
	</g>
	<g>
	</g>
	<g>
	</g>
	<g>
		<g>
			<g>
				<path class="st5" d="M36.01,35.98L0.75,43.21c-0.8-3.9-0.95-7.3-0.51-11.25L36.01,35.98z"/>
			</g>
		</g>
		<g>
			<g>
				<path class="st6" d="M36.01,35.98L2.78,49.8c-0.92-2.2-1.55-4.26-2.03-6.6L36.01,35.98z"/>
			</g>
		</g>
		<g>
			<g>
				<path class="st4" d="M36.01,35.98L0.24,31.96C2.47,12.2,20.28-2.01,40.03,0.21S74,20.25,71.77,40.01S51.73,73.98,31.98,71.75
					C18.55,70.24,7.97,62.29,2.78,49.8L36.01,35.98z"/>
			</g>
		</g>
	</g>
</g>
</svg>
