<?xml version="1.0" encoding="utf-8"?>
<!-- Generator: Adobe Illustrator 27.7.0, SVG Export Plug-In . SVG Version: 6.00 Build 0)  -->
<svg version="1.1" id="Layer_1" xmlns="http://www.w3.org/2000/svg" xmlns:xlink="http://www.w3.org/1999/xlink" x="0px" y="0px"
	 viewBox="0 0 72 72" style="enable-background:new 0 0 72 72;" xml:space="preserve">
<style type="text/css">
	.st0{fill:#F3C5B1;}
	.st1{fill:#A1D6F4;}
	.st2{fill:#F9E875;}
	.st3{display:none;}
	.st4{display:inline;}
	.st5{fill-rule:evenodd;clip-rule:evenodd;fill:#F3C5B1;}
	.st6{fill-rule:evenodd;clip-rule:evenodd;fill:#A1D6F4;}
</style>
<g id="Layer_1_00000005245028650688573610000012962404780522327957_">
	<g>
		<g>
			<g>
				<path class="st0" d="M36,36L2.4,48.9c-0.6-1.5-1.1-3.3-1.5-4.8L36,36z"/>
			</g>
		</g>
		<g>
			<g>
				<path class="st1" d="M36,36L3.1,50.6c-0.3-0.7-0.4-1-0.7-1.7L36,36z"/>
			</g>
		</g>
		<g>
			<g>
				<path class="st2" d="M36,36L0.9,44.1c-4.5-19.4,7.6-38.7,27-43.1s38.7,7.6,43.2,27c4.5,19.4-7.6,38.7-27,43.1
					c-17,3.9-33.9-4.5-41-20.4L36,36z"/>
			</g>
		</g>
	</g>
</g>
<g id="Layer_2_00000007423730841099977790000010892245840423111839_" class="st3">
	<g class="st4">
		<g>
			<g>
				<path class="st5" d="M36,36L0.8,43.2c-0.8-3.9-0.9-7.3-0.5-11.2L36,36z"/>
			</g>
		</g>
		<g>
			<g>
				<path class="st6" d="M36,36L2.8,49.8c-0.9-2.2-1.5-4.3-2-6.6L36,36z"/>
			</g>
		</g>
		<g>
			<g>
				<path class="st2" d="M36,36L0.2,32C2.5,12.2,20.3-2,40,0.2s34,20,31.7,39.8S51.7,74,32,71.8c-13.4-1.5-24-9.5-29.2-22L36,36z"/>
			</g>
		</g>
	</g>
</g>
</svg>
