<?xml version="1.0" encoding="utf-8"?>
<!-- Generator: Adobe Illustrator 27.7.0, SVG Export Plug-In . SVG Version: 6.00 Build 0)  -->
<svg version="1.1" id="Layer_1" xmlns="http://www.w3.org/2000/svg" xmlns:xlink="http://www.w3.org/1999/xlink" x="0px" y="0px"
	 viewBox="0 0 297.22 194.46" style="enable-background:new 0 0 297.22 194.46;" xml:space="preserve">
<style type="text/css">
	.st0{fill:none;stroke:#010101;stroke-linecap:round;stroke-linejoin:round;stroke-miterlimit:10;}
</style>
<path class="st0" d="M1.5,130.4c3.74-10.08,10.73-18.56,17.74-26.72c5.35-6.24,10.79-12.4,16.45-18.36
	C53.11,67,72.63,50.68,93.76,36.81c7.39-4.85,15.29-9.52,24.07-10.53c6.71-0.77,13.46,0.65,20.06,2.07c1.95,0.42,4,0.89,5.42,2.3
	c1.41,1.4,1.76,4.06,0.18,5.26c2.56,1.37,4.07,2.02,6.34,2.38c2.58,0.41,5.39,1.02,6.76,3.41c0.7,1.22,0.66,2.81-0.21,3.91
	c-1.03,1.29-2.3,1.1-3.49,0.91c-9.12-1.47-18.25-2.94-27.38-4.41c6,5.59,11.99,11.19,17.99,16.79c1.78,1.66,3.66,3.61,4.46,5.8
	c0.59,1.63-0.72,3.31-2.45,3.24c-6.16-0.24-11.66-5.54-17.29-8.85c-7.21-4.24-16.18-5.39-24.23-3.1c-1.08,0.31-2.21,0.72-2.92,1.59
	c-0.92,1.14-0.89,2.77-0.74,4.23c0.65,6.3,2.6,12.45,5.69,17.98c0.4,0.72,0.85,1.46,1.57,1.87c0.77,0.45,1.72,0.43,2.61,0.38
	c8.08-0.51,15.97-3.59,22.26-8.69c2.14-1.73,4.13-3.72,6.64-4.85c2.51-1.13,5.76-1.19,7.73,0.73c2.11,2.05,1.96,5.63,0.47,8.16
	c-1.49,2.53-4,4.26-6.44,5.91l-32.3,21.84c-3.5,2.37-7.09,4.78-11.16,5.91c-4.79,1.33-9.87,0.79-14.83,0.47
	c-5.66-0.36-11.34-0.43-17.01-0.18c-2.46,0.1-5.01,0.29-7.18,1.44c-2.13,1.13-3.69,3.07-5.18,4.96
	c-8.9,11.32-17.42,22.93-25.56,34.8"/>
<path class="st0" d="M87.44,40.93c4.43-3.25,8.82-6.64,12.17-10.75c2.62-3.22,4.28-7.1,5.9-10.93c2.16-5.09,4.32-10.18,6.48-15.27
	c0.38-0.89,0.78-1.81,1.54-2.39c0.76-0.58,2-0.67,2.6,0.08c0.38,0.47,0.41,1.12,0.43,1.72c0.17,7.71-0.57,15.43-2.19,22.97"/>
<path class="st0" d="M143.49,35.9c-8.07-2.3-14.31-3.7-22.37-5.99"/>
<path class="st0" d="M126.15,42.21c-8.31-1.17-11.23-2.32-15.83-3.22"/>
<path class="st0" d="M229.45,82.99c-1,1.64-3.22,5.64-4.21,7.28c-0.79,1.3-1.61,2.63-2.8,3.58c-1.19,0.95-2.85,1.46-4.27,0.89
	c-1.5-0.6-2.37-2.33-2.24-3.94c0.13-1.61,1.12-3.07,2.4-4.06c1.28-0.99,2.83-1.56,4.39-1.99c2.49-0.68,4.62-2.5,7.2-2.48
	c2.39-4.07,2.45-10.33,2.42-13.74c-0.07-7.64-2.57-15.8-8.78-20.26c-5.48-3.93-12.68-4.25-19.42-4.43
	c-5.93-0.15-12.06-0.27-17.54,1.99c-6.2,2.55-10.81,7.81-16.19,11.82c-7.77,5.8-12.15,13.12-26.93,9.97
	c-6.21-1.33-12.89-2.02-19.21-1.32c-6.32,0.7-12.96,4.01-15.01,10.03c-1.86,5.47,0.61,11.52,4.12,16.11
	c3.66,4.79,8.51,8.68,13.98,11.22c4.26,1.98,9.35,3.55,11.36,7.8c2.46,5.2-1.13,11.12-4.63,15.68c-3.84,5-7.83,10-12.95,13.68
	c-5.11,3.69-11.54,5.96-17.75,4.86"/>
<path class="st0" d="M198.67,140.57c2.11-0.45,4.27-0.9,6.41-0.63c2.14,0.27,4.3,1.39,5.23,3.34c1.24,2.59-0.13,5.86-2.47,7.53
	c-2.33,1.67-5.35,2.04-8.22,1.97c-2.87-0.07-5.73-0.52-8.59-0.28c-4.41,0.37-8.51,2.35-12.48,4.32c-3.27,1.62-7.48,3.17-10.28,0.82
	c-1.77-1.48-2.21-4.14-1.56-6.36c0.65-2.22,2.2-4.06,3.89-5.64c-1.09-1.44-2.89-2.31-4.69-2.27c0.06-2.52-0.38-5.1,0.32-7.52
	c0.7-2.42,3.13-4.63,5.55-3.92c-1.4-1.12-2.8-2.23-4.2-3.35c0.92-2.48,0.26-5.26,0.65-7.88c0.4-2.62,2.89-5.4,5.31-4.33
	c0.86-0.87,0.32-2.36-0.44-3.32s-1.75-1.95-1.66-3.17c0.05-0.71,0.46-1.33,0.86-1.92l3.14-4.63c1.01,1.04,3.11,0.48,3.47-0.93
	c0.18-0.72-0.04-1.48-0.07-2.23c-0.08-2.09,1.46-4.01,3.36-4.88c1.9-0.88,4.09-0.89,6.17-0.61c-0.74-1.93-0.07-4.31,1.57-5.58
	c1.64-1.26,4.12-1.3,5.79-0.09c0.99-2.42,2.93-4.44,5.32-5.53c1.05-0.48,2.27-0.77,3.34-0.35c0.59,0.23,1.09,0.67,1.7,0.89
	c1.77,0.63,3.53-0.81,5.25-1.58c1.72-0.78,4.58,0,4.14,1.83c2.24-2.03,5.04-3.42,8.01-3.97c1.28-0.24,2.66-0.31,3.82,0.27
	c1.16,0.58,2,1.98,1.56,3.2c1.65-1.51,3.5-3.1,5.74-3.2c2.24-0.1,4.58,2.29,3.54,4.27c3.1-3.06,8.36-3.63,12.04-1.31
	c1.72,1.08,3.16,2.92,3.04,4.95c4.03-3.52,10.85-3.19,14.51,0.72c1.27,1.36,2.19,3.35,1.46,5.06c1.43-1.38,3.82-1.65,5.53-0.63
	c1.71,1.03,2.59,3.26,2.03,5.18c2.89,0.03,5.75,1.2,7.83,3.2c-0.33,0.83-0.67,1.65-1,2.48c2.86,0.51,4.71,3.24,6.22,5.72
	c1.4,2.3,2.71,5.56,0.74,7.4c2.5,0.55,4.59,2.67,5.09,5.19c0.5,2.51-0.61,5.27-2.72,6.74c3.25,2.68,2.75,8.62-0.9,10.73
	c1.98,1.38,1.64,4.82-0.4,6.12c-2.03,1.3-4.97,0.51-6.44-1.4c-0.8-1.03-1.23-2.44-0.75-3.64c-3.88-0.28-7.36-3.47-7.96-7.31
	c-4.04,0.75-8.19-0.1-12.22-0.95c-3.04-0.64-6.67-1.87-7.22-4.93c-0.38-2.12,0.98-4.12,2.28-5.84c-2.18,0.73-4.62-0.1-6.49-1.44
	c-1.87-1.34-3.34-3.15-5.01-4.74c-8.6-8.16-21.69-9.51-33.44-7.94c-5.62,0.75-11.27,2.11-16.14,5.02
	c-4.87,2.91-8.91,7.54-10.13,13.08c-0.87,3.94-0.15,8.36,2.54,11.36c2.69,3,7.52,4.13,10.96,2.02"/>
<path class="st0" d="M193.15,172.31c2.59-2.38,4.84-5.22,7.9-6.94c1.23-0.7,2.57-1.19,3.87-1.76c10.52-4.63,17.99-14.03,25.86-22.41
	c1.04-1.11,2.13-2.23,3.46-2.97c1.09-0.61,2.36-0.97,3.22-1.87c1.34-1.41,1.17-3.89-0.22-5.26c-1.39-1.36-3.69-1.56-5.41-0.65
	c-1.71,0.91-2.81,2.78-3.02,4.72c-0.12,1.18,0.04,2.4-0.34,3.52c-0.38,1.11-1.25,1.97-2.1,2.77c-5.04,4.79-10.37,9.26-15.7,13.74
	c-2.39,2-4.86,4.06-7.84,4.98c-2.39,0.74-4.97,0.7-7.35,1.46c-3.45,1.09-6.16,3.72-9.16,5.74c-2.92,1.96-6.19,3.39-9.61,4.2
	c0.24,0.86,0.47,1.72,0.71,2.58c6.68-1.29,11.08-8.85,17.87-9.33c-2.36,2.42-4.91,4.66-7.61,6.69c-0.94,0.7-6.85,3.74-6.74,4.84
	c0.14,1.5,3.75,1.16,4.64,0.93C188.34,176.59,191.1,174.19,193.15,172.31z"/>
<path class="st0" d="M177.83,166.31c0.86,0.32,1.81,0.28,2.72,0.13c1.82-0.3,3.66-1.06,4.77-2.53c1.01-1.35,1.36-3.2,2.7-4.22
	c1.28-0.98,3.05-0.88,4.66-0.8c1.39,0.06,2.8,0.07,4.13-0.35c1.32-0.42,2.56-1.31,3.08-2.6c-0.47,1.16-7.38,0.02-8.41-0.03
	c-3.07-0.14-5.5,0.45-8.21,1.86C181.17,158.84,172.38,164.27,177.83,166.31z"/>
<path class="st0" d="M239.32,133.02c1.15,0.01,2.3-0.11,3.43-0.35c0.43-0.09,0.89-0.22,1.13-0.59c0.33-0.49,0.12-1.15-0.16-1.68
	c-1.55-2.98-4.57-4.98-7.77-5.99c-3.2-1.02-6.6-1.17-9.96-1.28c-3.34-0.11-7.23,0.06-9.23,2.74c-0.68,0.91-1.04,2-1.36,3.09
	c-0.45,1.54-0.81,3.19-0.32,4.71c0.68,2.12,2.89,3.45,5.09,3.75c2.2,0.3,4.43-0.23,6.59-0.76"/>
<path class="st0" d="M229.34,146.9c0.77-1.33,2.2-2.4,3.73-2.29c2.39,0.16,3.69,2.78,4.58,5c3.48,8.74,7.87,17.08,12.25,25.4
	l5.8,11.02c0.27,0.52,0.55,1.08,0.47,1.65c-0.11,0.81-0.89,1.35-1.6,1.75c-2.44,1.38-5.05,2.45-7.75,3.17
	c-0.42,0.11-0.87,0.22-1.28,0.1c-0.49-0.14-0.86-0.55-1.12-0.99c-1.27-2.13-0.69-4.99-1.98-7.1c-1.07-1.75-3.16-2.57-4.64-3.99
	c-2.3-2.2-2.91-5.96-1.42-8.77c-3.08,1.8-7.27,0.41-9.59-2.3c-2.32-2.71-3.14-6.39-3.53-9.94c-0.14-1.27-0.25-2.81,0.31-4
	c0.79-1.66,2.13-1.54,3.37-2.59C228.74,151.49,228.16,148.93,229.34,146.9z"/>
<path class="st0" d="M249.54,156.01c-1.27-0.66-2.22-2.18-1.74-3.53c-2.16-0.07-3.39-3.25-1.85-4.76c-0.52-0.79-1.06-1.67-0.95-2.61
	c0.11-0.94,1.28-1.75,2.03-1.18c-0.38-1.43,1.04-3.02,2.51-2.79c-0.34-1.08,0.95-1.92,2-2.32c1.83-0.7,3.66-1.41,5.49-2.11
	c0.97-0.37,1.96-0.75,3-0.7c1.03,0.04,2.12,0.62,2.43,1.6c2.28-1.18,5.34-0.59,7.02,1.36c1.71-0.45,3.67,0.7,4.11,2.41
	c1.24,0.04,2.54,0.09,3.64,0.68c1.09,0.59,1.9,1.91,1.5,3.09c2.13-0.36,3.84,1.66,5.05,3.46c0.36,0.53,0.71,1.06,1.07,1.59
	c0.54,0.81,1.1,1.65,1.26,2.61c0.16,0.96-0.18,2.08-1.05,2.52c1.73,1.78,1.79,4.56,1.64,7.04c-0.05,0.9-0.14,1.84-0.62,2.59
	c-0.49,0.76-1.51,1.24-2.31,0.83c-0.2,1.11-0.42,2.27-1.07,3.19c-0.65,0.93-1.87,1.56-2.93,1.17c-0.53,1.24-1.09,2.53-2.1,3.42
	c-1.02,0.89-2.64,1.24-3.72,0.44c-0.86,0.96-1.93,1.73-3.11,2.24c-0.3-0.32-0.59-0.64-0.89-0.96c-0.79,0.65-1.61,1.32-2.61,1.59
	c-0.99,0.27-2.2,0.01-2.74-0.86c-1.59,0.58-3.23,1.02-4.9,1.29c-0.07,0.45,0.8,0.01,0.53-0.35c-0.27-0.37-0.82-0.27-1.28-0.23
	c-2.05,0.18-3.88-2.14-3.22-4.09c-1.14,0.23-2.45,0.24-3.31-0.53c-0.86-0.78-0.73-2.54,0.4-2.8c-0.9-0.89-1.78-1.91-1.93-3.17
	c-0.15-1.25,0.8-2.7,2.05-2.59c-2-1.56-0.79-4.82,1.35-5.48C253.91,155.95,251.05,156.79,249.54,156.01z"/>
</svg>
