<?xml version="1.0" encoding="utf-8"?>
<!-- Generator: Adobe Illustrator 27.7.0, SVG Export Plug-In . SVG Version: 6.00 Build 0)  -->
<svg version="1.1" id="Layer_1" xmlns="http://www.w3.org/2000/svg" xmlns:xlink="http://www.w3.org/1999/xlink" x="0px" y="0px"
	 viewBox="0 0 145.47 146.38" style="enable-background:new 0 0 145.47 146.38;" xml:space="preserve">
<style type="text/css">
	.st0{fill:none;stroke:#231F20;stroke-linecap:round;stroke-linejoin:round;stroke-miterlimit:10;}
</style>
<path class="st0" d="M20.5,145.47l-1.63-36.68c-0.16-3.5-0.38-7.21-2.4-10.08c-2.95-4.18-8.59-5.15-13.18-7.41
	c-0.8-0.39-1.6-0.86-2.06-1.62c-0.47-0.8-0.48-1.78-0.48-2.7C0.84,73.5,0.91,60.03,0.98,46.56c0.03-6.22,0.7-13.48,4.57-17.82
	c1.17-1.31,3.35-0.34,3.22,1.42l-1.91,24.6c-0.1,1.3,0.06,2.62,0.62,3.79c2.13,4.41,6.87,2.6,8.48-0.47
	c1.2-2.29,1.14-5.02,1.04-7.61c-0.35-9.3-0.7-18.61-1.05-27.91c-0.17-4.58,0.12-9.91,2.19-13.74c1.22-2.26,4.68-1.24,4.58,1.32
	L20.75,58.1c4.47,0.47,8.68-2.78,10.74-6.77c2.07-4,2.45-8.62,2.8-13.11L36.8,5.64C37,3.12,38.85-0.34,40.99,1
	c4.15,16.71-3.32,34.16-2.08,51.35c0.09,1.26,0.7,2.49,1.77,3.18c1.93,1.24,3.82-0.12,5.19-1.5c3.09-3.12,5.49-6.92,6.97-11.05
	c1.93-5.39,3.48-12.5,9.31-13.25c2.19-0.28,4.39,0.56,6.02,2.06c3.16,2.89,4.07,7.04,4.68,11.07c0.92,6.04,1.32,12.17,1.22,18.28
	c-0.02,1.26-0.66,2.49-1.77,3.08c-1.59,0.84-2.75-0.12-3.62-1.13c-2.24-2.62-3.43-6.12-3.23-9.56c0.11-1.96,0.64-4.02-1.37-5.64
	c-0.99-0.8-2.28-1.16-3.54-1.08c-2.67,0.17-4.83,1.88-6.79,3.6c-5.7,5.02-10.93,10.99-13.07,18.27c-2.14,7.28-0.5,16.08,5.53,20.69
	c6.03,4.61,16.42,2.91,19.23-4.14c0.75-1.88,0.96-3.97,1.92-5.76c0.96-1.78,3.27-2.9,5.12-2.07c0.94,4.24,0.99,8.34,0.42,12.65
	c-0.22,1.69-0.59,3.43-1.57,4.82c-1.01,1.42-2.57,2.35-4.13,3.14c-7.49,3.81-16.02,5.54-24.4,4.94c-0.81-0.06-1.68-0.13-2.4,0.27
	c-1.24,0.69-1.41,2.37-1.43,3.78c-0.16,10.3-0.32,20.6-0.49,30.9"/>
<path class="st0" d="M101.47,53.76c-13.09,1.28-25.81,6.64-35.71,15.31c-1.45,1.27-1.3,3.59,0.3,4.65
	c10.31,6.86,22.77,10.31,35.19,10.67c11.87,0.34,28.66-1.28,39.02-7.7c6.77-4.2,5.18-4.46-0.17-9.35
	c-9.63-8.82-24.76-18.55-38.69-13.04c-12.55,4.96-19.35,24.38-1.87,27.01c4.6,0.69,9.48,1.11,13.52-2.15
	c2.47-1.99,3.9-4.97,4.33-8.11c1.66-12.19-12.65-17.18-20.4-11.34"/>
<path class="st0" d="M96.72,59.87c-2.26,1.59-2.74,4.71-2.69,7.47c0.03,1.62,0.21,3.33,1.14,4.67c0.86,1.24,2.26,2,3.71,2.43
	c2.83,0.84,6.36,0.27,7.96-2.22c0.76-1.19,0.99-2.67,0.79-4.07c-0.21-1.51-1.05-3.1-2.51-3.53c-0.96-0.29-2.05,0-2.78,0.68
	c-0.73,0.68-1.1,1.72-1.01,2.71c0.07,0.83,0.49,1.67,1.23,2.04c0.74,0.37,1.8,0.11,2.12-0.66"/>
</svg>
