<?xml version="1.0" encoding="UTF-8" standalone="no"?>
<!-- Created with Inkscape (http://www.inkscape.org/) -->

<svg
   version="1.1"
   id="svg2"
   width="216.90668"
   height="27.76"
   viewBox="0 0 216.90668 27.76"
   sodipodi:docname="healthcanada.eps"
   xmlns:inkscape="http://www.inkscape.org/namespaces/inkscape"
   xmlns:sodipodi="http://sodipodi.sourceforge.net/DTD/sodipodi-0.dtd"
   xmlns="http://www.w3.org/2000/svg"
   xmlns:svg="http://www.w3.org/2000/svg">
  <defs
     id="defs6" />
  <sodipodi:namedview
     id="namedview4"
     pagecolor="#ffffff"
     bordercolor="#000000"
     borderopacity="0.25"
     inkscape:showpageshadow="2"
     inkscape:pageopacity="0.0"
     inkscape:pagecheckerboard="0"
     inkscape:deskcolor="#d1d1d1" />
  <g
     id="g8"
     inkscape:groupmode="layer"
     inkscape:label="ink_ext_XXXXXX"
     transform="matrix(1.3333333,0,0,-1.3333333,0,27.76)">
    <g
       id="g10"
       transform="scale(0.1)">
      <path
         d="M 0,208.18 H 102.23 V 0 H 0 v 208.18"
         style="fill:#e82434;fill-opacity:1;fill-rule:nonzero;stroke:none"
         id="path12" />
      <path
         d="M 328.988,208.18 H 431.219 V 0 H 328.988 v 208.18"
         style="fill:#e82434;fill-opacity:1;fill-rule:nonzero;stroke:none"
         id="path14" />
      <path
         d="m 201.43,164.898 14.609,29.731 14.5,-28.629 c 1.813,-3.031 3.262,-2.781 6.16,-1.328 l 12.449,6.156 -8.097,-39.988 c -1.692,-7.852 2.777,-10.16 7.609,-4.82 l 17.762,18.96 4.699,-10.75 c 1.578,-3.261 3.988,-2.769 7.129,-2.171 l 18.359,3.871 -6.16,-23.2 -0.129,-0.48 c -0.718,-3.031 -2.172,-5.559 1.219,-7.012 l 6.52,-3.258 -37.821,-32.0191 c -3.859,-3.9804 -2.527,-5.1992 -1.078,-9.6718 l 3.5,-10.7383 -35.269,6.4101 c -4.352,1.0899 -7.371,1.0899 -7.493,-2.4218 l 1.454,-40.4688 H 210.73 l 1.461,40.3516 c 0,3.9765 -3.031,3.8672 -10.16,2.4062 l -32.621,-6.2773 4.231,10.7383 c 1.437,4.1211 1.808,6.8906 -1.461,9.6718 l -38.66,31.5391 7.128,4.352 c 2.063,1.57 2.172,3.257 1.09,6.769 l -7.25,23.551 18.614,-3.981 c 5.187,-1.211 6.636,0 7.957,2.899 l 5.203,10.629 18.359,-20.789 c 3.27,-3.86 7.859,-1.321 6.41,4.242 l -8.82,43.367 13.648,-7.848 c 2.172,-1.332 4.469,-1.703 5.801,0.84"
         style="fill:#e82434;fill-opacity:1;fill-rule:nonzero;stroke:none"
         id="path16" />
      <path
         d="m 1213.87,143.883 c 0.26,-4.879 1.37,-8.848 3.33,-11.891 3.73,-5.699 10.29,-8.547 19.7,-8.547 4.21,0 8.05,0.618 11.51,1.879 6.7,2.418 10.05,6.762 10.05,13.012 0,4.687 -1.42,8.027 -4.26,10.019 -2.88,1.95 -7.38,3.649 -13.51,5.098 l -11.29,2.641 c -7.38,1.719 -12.6,3.609 -15.66,5.679 -5.3,3.59 -7.95,8.961 -7.95,16.11 0,7.73 2.6,14.082 7.81,19.043 5.21,4.957 12.58,7.437 22.12,7.437 8.78,0 16.24,-2.179 22.38,-6.527 6.14,-4.352 9.21,-11.32 9.21,-20.891 h -10.96 c -0.56,4.61 -1.76,8.141 -3.59,10.61 -3.41,4.488 -9.19,6.738 -17.36,6.738 -6.59,0 -11.33,-1.449 -14.21,-4.34 -2.9,-2.898 -4.34,-6.258 -4.34,-10.09 0,-4.218 1.7,-7.3 5.11,-9.258 2.24,-1.25 7.29,-2.812 15.16,-4.691 l 11.69,-2.75 c 5.64,-1.328 9.99,-3.141 13.06,-5.449 5.3,-4.02 7.95,-9.86 7.95,-17.52 0,-9.531 -3.38,-16.351 -10.14,-20.453 -6.76,-4.097 -14.62,-6.148 -23.57,-6.148 -10.44,0 -18.61,2.73 -24.51,8.199 -5.91,5.43 -8.8,12.793 -8.69,22.09 h 10.96"
         style="fill:#ffffff;fill-opacity:1;fill-rule:nonzero;stroke:none"
         id="path18" />
      <path
         d="m 1299.43,125.605 c 2.23,-1.761 4.86,-2.632 7.91,-2.632 3.71,0 7.3,0.863 10.78,2.57 5.86,2.852 8.79,7.512 8.79,13.98 v 8.481 c -1.29,-0.828 -2.94,-1.512 -4.97,-2.059 -2.03,-0.55 -4.01,-0.941 -5.97,-1.172 l -6.37,-0.82 c -3.82,-0.508 -6.69,-1.301 -8.62,-2.398 -3.26,-1.832 -4.89,-4.762 -4.89,-8.77 0,-3.031 1.11,-5.43 3.34,-7.18 z m 22.2,28.489 c 2.42,0.308 4.04,1.32 4.86,3.039 0.47,0.941 0.7,2.293 0.7,4.062 0,3.61 -1.28,6.231 -3.83,7.848 -2.55,1.633 -6.21,2.441 -10.97,2.441 -5.5,0 -9.39,-1.492 -11.69,-4.468 -1.29,-1.653 -2.12,-4.114 -2.51,-7.364 h -9.84 c 0.2,7.75 2.7,13.153 7.52,16.192 4.82,3.039 10.41,4.558 16.77,4.558 7.37,0 13.36,-1.41 17.97,-4.218 4.57,-2.809 6.85,-7.192 6.85,-13.121 v -36.161 c 0,-1.089 0.22,-1.968 0.67,-2.629 0.45,-0.66 1.4,-1 2.84,-1 0.47,0 1,0.032 1.58,0.09 0.58,0.063 1.21,0.153 1.88,0.262 v -7.789 c -1.64,-0.473 -2.89,-0.762 -3.75,-0.883 -0.86,-0.117 -2.03,-0.18 -3.52,-0.18 -3.63,0 -6.27,1.29 -7.91,3.872 -0.86,1.371 -1.46,3.3 -1.82,5.8 -2.15,-2.812 -5.23,-5.25 -9.26,-7.32 -4.03,-2.07 -8.46,-3.109 -13.3,-3.109 -5.82,0 -10.58,1.769 -14.27,5.297 -3.69,3.531 -5.53,7.941 -5.53,13.242 0,5.82 1.82,10.32 5.45,13.519 3.63,3.199 8.4,5.168 14.3,5.91 l 16.81,2.11"
         style="fill:#ffffff;fill-opacity:1;fill-rule:nonzero;stroke:none"
         id="path20" />
      <path
         d="m 1357.86,178.863 h 10.02 v -8.91 c 2.97,3.672 6.11,6.313 9.43,7.91 3.32,1.602 7.01,2.403 11.07,2.403 8.91,0 14.92,-3.114 18.05,-9.321 1.72,-3.402 2.58,-8.261 2.58,-14.59 v -40.25 h -10.72 v 39.559 c 0,3.828 -0.57,6.91 -1.7,9.262 -1.88,3.91 -5.27,5.859 -10.2,5.859 -2.5,0 -4.55,-0.25 -6.15,-0.762 -2.89,-0.859 -5.43,-2.578 -7.62,-5.16 -1.76,-2.07 -2.9,-4.211 -3.43,-6.418 -0.53,-2.211 -0.79,-5.359 -0.79,-9.461 v -32.871 h -10.55 v 62.75 h 0.01"
         style="fill:#ffffff;fill-opacity:1;fill-rule:nonzero;stroke:none"
         id="path22" />
      <path
         d="m 1429.83,196.383 h 10.66 v -17.52 h 10.02 v -8.609 h -10.02 v -40.961 c 0,-2.188 0.74,-3.648 2.23,-4.391 0.82,-0.429 2.19,-0.636 4.1,-0.636 0.51,0 1.05,0.007 1.64,0.039 0.59,0.031 1.27,0.09 2.05,0.199 v -8.379 c -1.21,-0.352 -2.47,-0.609 -3.78,-0.762 -1.31,-0.148 -2.72,-0.23 -4.25,-0.23 -4.92,0 -8.26,1.262 -10.02,3.781 -1.76,2.52 -2.64,5.789 -2.64,9.809 v 41.531 h -8.5 v 8.609 h 8.5 v 17.52 h 0.01"
         style="fill:#ffffff;fill-opacity:1;fill-rule:nonzero;stroke:none"
         id="path24" />
      <path
         d="m 1502.5,204.125 -15.65,-16.941 h -8.09 l 10.72,16.929 h 13.02 z m 4.22,-51.621 c -0.43,4.57 -1.42,8.219 -2.97,10.949 -2.87,5.082 -7.65,7.621 -14.35,7.621 -4.8,0 -8.83,-1.75 -12.08,-5.238 -3.25,-3.492 -4.98,-7.941 -5.17,-13.332 z m -3.78,24.629 c 4.16,-2.09 7.32,-4.789 9.49,-8.117 2.1,-3.161 3.5,-6.864 4.19,-11.071 0.62,-2.89 0.93,-7.5 0.93,-13.832 h -45.64 c 0.2,-6.39 1.68,-11.508 4.48,-15.371 2.79,-3.859 7.11,-5.789 12.96,-5.789 5.46,0 9.82,1.832 13.08,5.473 1.82,2.117 3.11,4.566 3.87,7.359 h 10.37 c -0.27,-2.301 -1.18,-4.871 -2.72,-7.711 -1.54,-2.84 -3.27,-5.148 -5.17,-6.941 -3.18,-3.117 -7.11,-5.231 -11.8,-6.328 -2.52,-0.621 -5.37,-0.942 -8.55,-0.942 -7.76,0 -14.34,2.84 -19.74,8.532 -5.4,5.679 -8.1,13.64 -8.1,23.878 0,10.082 2.71,18.262 8.15,24.551 5.43,6.289 12.54,9.43 21.31,9.43 4.45,0.019 8.74,-1.031 12.89,-3.121"
         style="fill:#ffffff;fill-opacity:1;fill-rule:nonzero;stroke:none"
         id="path26" />
      <path
         d="m 661.352,85.9102 c 5.941,-5.7383 9.25,-12.2696 9.902,-19.5704 h -11.371 c -1.262,5.5508 -3.789,9.9415 -7.57,13.1797 -3.782,3.2422 -9.083,4.8594 -15.911,4.8594 -8.332,0 -15.05,-2.9805 -20.172,-8.9492 -5.117,-5.9609 -7.679,-15.1016 -7.679,-27.4102 0,-10.0898 2.312,-18.2695 6.929,-24.539 4.622,-6.2813 11.524,-9.4102 20.692,-9.4102 8.441,0 14.871,3.3008 19.281,9.8985 2.34,3.4804 4.09,8.0507 5.238,13.7109 h 11.372 C 671.051,28.6211 667.73,21.0195 662.102,14.8906 655.344,7.51172 646.23,3.82031 634.762,3.82031 c -9.891,0 -18.192,3.03125 -24.91,9.08989 -8.84,8.0117 -13.258,20.3906 -13.258,37.1093 0,12.711 3.316,23.1211 9.957,31.25 7.179,8.8321 17.082,13.25 29.711,13.25 10.781,0.0118 19.14,-2.8593 25.09,-8.6093"
         style="fill:#ffffff;fill-opacity:1;fill-rule:nonzero;stroke:none"
         id="path28" />
      <path
         d="m 700.273,15.6016 c 2.231,-1.7618 4.86,-2.6328 7.911,-2.6328 3.707,0 7.296,0.8593 10.777,2.5703 5.859,2.8515 8.793,7.5117 8.793,13.9804 V 38 c -1.293,-0.8281 -2.941,-1.5117 -4.973,-2.0586 -2.027,-0.5508 -4.008,-0.9414 -5.968,-1.1719 l -6.372,-0.8203 c -3.82,-0.5078 -6.687,-1.3008 -8.621,-2.3984 -3.257,-1.832 -4.886,-4.7617 -4.886,-8.7695 0,-3.0313 1.109,-5.4297 3.339,-7.1797 z m 22.2,28.4882 c 2.418,0.3086 4.039,1.3204 4.859,3.0391 0.469,0.9414 0.699,2.293 0.699,4.0625 0,3.6094 -1.277,6.2305 -3.828,7.8477 -2.551,1.6328 -6.211,2.4414 -10.973,2.4414 -5.5,0 -9.386,-1.4922 -11.687,-4.4688 -1.289,-1.6523 -2.121,-4.1133 -2.512,-7.3633 h -9.84 c 0.2,7.75 2.7,13.1524 7.52,16.1914 4.82,3.0391 10.41,4.5586 16.769,4.5586 7.372,0 13.364,-1.4101 17.973,-4.2187 4.57,-2.8086 6.848,-7.1914 6.848,-13.1211 V 16.8984 c 0,-1.0898 0.222,-1.9687 0.672,-2.6289 0.449,-0.6601 1.398,-1 2.84,-1 0.468,0 1,0.0313 1.578,0.0899 0.582,0.0625 1.211,0.1523 1.882,0.2617 V 5.82813 c -1.64,-0.46875 -2.89,-0.75782 -3.75,-0.87891 -0.863,-0.12109 -2.031,-0.17969 -3.519,-0.17969 -3.633,0 -6.274,1.28906 -7.91,3.8711 -0.864,1.37107 -1.461,3.30077 -1.821,5.80077 -2.152,-2.8125 -5.23,-5.24999 -9.261,-7.32031 -4.032,-2.07031 -8.461,-3.10937 -13.301,-3.10937 -5.82,0 -10.578,1.76953 -14.27,5.29687 -3.687,3.53121 -5.539,7.95311 -5.539,13.25001 0,5.8203 1.821,10.3203 5.45,13.5195 3.628,3.2032 8.402,5.1719 14.3,5.9102 l 16.821,2.1015"
         style="fill:#ffffff;fill-opacity:1;fill-rule:nonzero;stroke:none"
         id="path30" />
      <path
         d="m 758.703,68.8594 h 10.02 v -8.9102 c 2.968,3.6719 6.109,6.3125 9.429,7.9102 3.321,1.6015 7.008,2.4023 11.071,2.4023 8.91,0 14.918,-3.1133 18.05,-9.3203 1.719,-3.4023 2.579,-8.2617 2.579,-14.5898 V 6.10156 H 799.133 V 45.6484 c 0,3.8321 -0.57,6.9102 -1.699,9.2618 -1.883,3.9101 -5.274,5.8593 -10.204,5.8593 -2.5,0 -4.546,-0.25 -6.148,-0.7578 -2.891,-0.8633 -5.43,-2.582 -7.621,-5.1601 -1.758,-2.0703 -2.898,-4.211 -3.43,-6.4219 -0.527,-2.2109 -0.789,-5.3594 -0.789,-9.4609 V 6.10156 H 758.691 V 68.8594 h 0.012"
         style="fill:#ffffff;fill-opacity:1;fill-rule:nonzero;stroke:none"
         id="path32" />
      <path
         d="m 839.98,15.6016 c 2.231,-1.7618 4.864,-2.6328 7.911,-2.6328 3.711,0 7.3,0.8593 10.781,2.5703 5.859,2.8515 8.789,7.5117 8.789,13.9804 V 38 c -1.289,-0.8281 -2.938,-1.5117 -4.969,-2.0586 C 860.461,35.3906 858.48,35 856.523,34.7695 l -6.371,-0.8203 c -3.82,-0.5078 -6.691,-1.3008 -8.621,-2.3984 -3.258,-1.832 -4.89,-4.7617 -4.89,-8.7695 0,-3.0313 1.121,-5.4297 3.339,-7.1797 z m 22.211,28.4882 c 2.422,0.3086 4.039,1.3204 4.86,3.0391 0.472,0.9414 0.703,2.293 0.703,4.0625 0,3.6094 -1.281,6.2305 -3.832,7.8477 -2.551,1.6328 -6.211,2.4414 -10.969,2.4414 -5.5,0 -9.39,-1.4922 -11.691,-4.4688 -1.289,-1.6523 -2.121,-4.1133 -2.508,-7.3633 h -9.844 c 0.203,7.75 2.703,13.1524 7.524,16.1914 4.82,3.0391 10.41,4.5586 16.769,4.5586 7.367,0 13.36,-1.4101 17.969,-4.2187 4.57,-2.8086 6.851,-7.1914 6.851,-13.1211 V 16.8984 c 0,-1.0898 0.219,-1.9687 0.668,-2.6289 0.45,-0.6601 1.403,-1 2.84,-1 0.473,0 1,0.0313 1.582,0.0899 0.578,0.0625 1.207,0.1523 1.879,0.2617 V 5.82813 c -1.64,-0.46875 -2.89,-0.75782 -3.75,-0.87891 -0.859,-0.12109 -2.031,-0.17969 -3.519,-0.17969 -3.629,0 -6.27,1.28906 -7.91,3.8711 -0.86,1.37107 -1.461,3.30077 -1.821,5.80077 -2.148,-2.8125 -5.23,-5.24999 -9.262,-7.32031 -4.027,-2.07031 -8.457,-3.10937 -13.296,-3.10937 -5.821,0 -10.582,1.76953 -14.274,5.29687 -3.687,3.53121 -5.539,7.95311 -5.539,13.25001 0,5.8203 1.82,10.3203 5.449,13.5195 3.633,3.2032 8.403,5.1719 14.301,5.9102 l 16.82,2.1015"
         style="fill:#ffffff;fill-opacity:1;fill-rule:nonzero;stroke:none"
         id="path34" />
      <path
         d="m 909.352,19.8789 c 2.839,-4.5273 7.378,-6.8008 13.64,-6.8008 4.86,0 8.852,2.1016 11.981,6.3008 3.129,4.1992 4.687,10.2227 4.687,18.082 0,7.9297 -1.609,13.8008 -4.84,17.6094 -3.226,3.8086 -7.207,5.711 -11.949,5.711 -5.277,0 -9.57,-2.0313 -12.848,-6.0899 -3.293,-4.0625 -4.929,-10.043 -4.929,-17.9297 0.008,-6.7304 1.418,-12.3515 4.258,-16.8828 z m 23.539,47.0508 c 1.871,-1.168 3.992,-3.2188 6.363,-6.1484 v 31.6992 h 10.137 V 6.10938 h -9.489 v 8.73042 c -2.449,-3.871 -5.351,-6.66011 -8.699,-8.37886 -3.351,-1.72266 -7.18,-2.58203 -11.5,-2.58203 -6.973,0 -13,2.9414 -18.101,8.82029 -5.098,5.8789 -7.649,13.6992 -7.649,23.4727 0,9.1367 2.32,17.0586 6.969,23.7578 4.648,6.6992 11.289,10.0508 19.941,10.0508 4.797,0 8.809,-1.0196 12.028,-3.0508"
         style="fill:#ffffff;fill-opacity:1;fill-rule:nonzero;stroke:none"
         id="path36" />
      <path
         d="m 979.703,15.6016 c 2.231,-1.7618 4.86,-2.6328 7.91,-2.6328 3.707,0 7.297,0.8593 10.778,2.5703 5.859,2.8515 8.789,7.5117 8.789,13.9804 V 38 c -1.29,-0.8281 -2.94,-1.5117 -4.97,-2.0586 -2.03,-0.5508 -4.007,-0.9414 -5.968,-1.1719 l -6.371,-0.8203 c -3.82,-0.5078 -6.687,-1.3008 -8.617,-2.3984 -3.262,-1.832 -4.891,-4.7617 -4.891,-8.7695 0,-3.0313 1.11,-5.4297 3.34,-7.1797 z m 22.207,28.4882 c 2.42,0.3086 4.04,1.3204 4.86,3.0391 0.47,0.9414 0.7,2.293 0.7,4.0625 0,3.6094 -1.28,6.2305 -3.83,7.8477 -2.55,1.6328 -6.206,2.4414 -10.968,2.4414 -5.5,0 -9.391,-1.4922 -11.692,-4.4688 -1.289,-1.6523 -2.117,-4.1133 -2.507,-7.3633 h -9.84 c 0.199,7.75 2.699,13.1524 7.519,16.1914 4.821,3.0391 10.411,4.5586 16.77,4.5586 7.368,0 13.358,-1.4101 17.968,-4.2187 4.57,-2.8086 6.85,-7.1914 6.85,-13.1211 V 16.8984 c 0,-1.0898 0.22,-1.9687 0.67,-2.6289 0.45,-0.6601 1.4,-1 2.84,-1 0.47,0 1,0.0313 1.58,0.0899 0.58,0.0625 1.21,0.1523 1.88,0.2617 V 5.82813 c -1.64,-0.46875 -2.89,-0.75782 -3.75,-0.87891 -0.86,-0.12109 -2.03,-0.17969 -3.52,-0.17969 -3.63,0 -6.27,1.28906 -7.91,3.8711 -0.86,1.37107 -1.46,3.30077 -1.82,5.80077 -2.15,-2.8125 -5.23,-5.24999 -9.257,-7.32031 -4.031,-2.07031 -8.461,-3.10937 -13.301,-3.10937 -5.82,0 -10.582,1.76953 -14.269,5.29687 -3.692,3.53121 -5.539,7.95311 -5.539,13.25001 0,5.8203 1.816,10.3203 5.449,13.5195 3.629,3.2032 8.398,5.1719 14.301,5.9102 l 16.816,2.1015"
         style="fill:#ffffff;fill-opacity:1;fill-rule:nonzero;stroke:none"
         id="path38" />
      <path
         d="m 596.594,204.074 h 11.777 v -35.57 h 44.242 v 35.57 h 11.778 v -86.07 h -11.778 v 40.25 h -44.242 v -40.25 h -11.777 v 86.07"
         style="fill:#ffffff;fill-opacity:1;fill-rule:nonzero;stroke:none"
         id="path40" />
      <path
         d="m 727.211,154.383 c -0.418,4.57 -1.418,8.222 -2.957,10.961 -2.871,5.082 -7.652,7.621 -14.352,7.621 -4.8,0 -8.832,-1.75 -12.082,-5.242 -3.25,-3.489 -4.976,-7.938 -5.168,-13.328 h 34.559 z m -3.777,24.64 c 4.16,-2.089 7.32,-4.789 9.488,-8.121 2.101,-3.16 3.5,-6.859 4.191,-11.066 0.617,-2.891 0.93,-7.5 0.93,-13.832 h -45.641 c 0.2,-6.391 1.68,-11.512 4.481,-15.371 2.789,-3.86 7.109,-5.789 12.961,-5.789 5.457,0 9.816,1.832 13.078,5.469 1.82,2.121 3.109,4.57 3.871,7.363 h 10.367 c -0.269,-2.301 -1.18,-4.871 -2.719,-7.711 -1.539,-2.84 -3.269,-5.152 -5.168,-6.942 -3.179,-3.121 -7.113,-5.23 -11.8,-6.328 -2.52,-0.621 -5.371,-0.941 -8.551,-0.941 -7.762,0 -14.34,2.84 -19.738,8.531 -5.403,5.68 -8.102,13.641 -8.102,23.879 0,10.078 2.711,18.262 8.148,24.551 5.43,6.289 12.543,9.43 21.313,9.43 4.449,0.007 8.738,-1.032 12.891,-3.122"
         style="fill:#ffffff;fill-opacity:1;fill-rule:nonzero;stroke:none"
         id="path42" />
      <path
         d="m 765.961,127.484 c 2.23,-1.761 4.859,-2.629 7.91,-2.629 3.711,0 7.301,0.86 10.781,2.571 5.86,2.847 8.789,7.508 8.789,13.976 v 8.493 c -1.289,-0.832 -2.937,-1.512 -4.968,-2.059 -2.032,-0.551 -4.012,-0.941 -5.969,-1.172 l -6.371,-0.82 c -3.82,-0.508 -6.692,-1.301 -8.621,-2.399 -3.258,-1.832 -4.891,-4.761 -4.891,-8.769 0,-3.043 1.109,-5.442 3.34,-7.192 z m 22.199,28.489 c 2.422,0.312 4.043,1.32 4.863,3.043 0.469,0.937 0.7,2.289 0.7,4.058 0,3.61 -1.282,6.231 -3.832,7.852 -2.547,1.629 -6.207,2.437 -10.969,2.437 -5.5,0 -9.391,-1.488 -11.692,-4.468 -1.289,-1.653 -2.117,-4.11 -2.507,-7.36 h -9.84 c 0.199,7.75 2.699,13.149 7.519,16.188 4.821,3.043 10.411,4.562 16.77,4.562 7.371,0 13.359,-1.41 17.969,-4.222 4.57,-2.809 6.851,-7.188 6.851,-13.118 v -36.16 c 0,-1.09 0.219,-1.972 0.668,-2.633 0.453,-0.66 1.403,-1 2.844,-1 0.469,0 1,0.032 1.578,0.09 0.578,0.063 1.211,0.153 1.879,0.262 v -7.789 c -1.641,-0.473 -2.891,-0.762 -3.75,-0.879 -0.859,-0.121 -2.027,-0.184 -3.52,-0.184 -3.628,0 -6.269,1.293 -7.91,3.871 -0.859,1.372 -1.461,3.301 -1.82,5.801 -2.148,-2.808 -5.231,-5.25 -9.258,-7.32 -4.031,-2.07 -8.461,-3.109 -13.301,-3.109 -5.82,0 -10.582,1.769 -14.269,5.3 -3.692,3.528 -5.539,7.95 -5.539,13.25 0,5.821 1.816,10.321 5.449,13.52 3.629,3.199 8.398,5.168 14.301,5.91 l 16.816,2.098"
         style="fill:#ffffff;fill-opacity:1;fill-rule:nonzero;stroke:none"
         id="path44" />
      <path
         d="m 824.684,204.074 h 10.546 v -86.07 h -10.546 v 86.07"
         style="fill:#ffffff;fill-opacity:1;fill-rule:nonzero;stroke:none"
         id="path46" />
      <path
         d="m 856.281,198.273 h 10.66 v -17.519 h 10.02 v -8.609 h -10.02 v -40.961 c 0,-2.192 0.743,-3.649 2.231,-4.391 0.82,-0.43 2.191,-0.641 4.101,-0.641 0.508,0 1.047,0.012 1.637,0.043 0.594,0.028 1.274,0.09 2.051,0.2 v -8.379 c -1.207,-0.352 -2.469,-0.614 -3.777,-0.762 -1.313,-0.149 -2.723,-0.231 -4.25,-0.231 -4.922,0 -8.262,1.262 -10.024,3.782 -1.758,2.519 -2.637,5.789 -2.637,9.808 v 41.52 h -8.5 v 8.621 h 8.5 v 17.519 h 0.008"
         style="fill:#ffffff;fill-opacity:1;fill-rule:nonzero;stroke:none"
         id="path48" />
      <path
         d="m 890.633,204.363 h 10.551 v -32.109 c 2.5,3.16 4.75,5.391 6.738,6.68 3.398,2.23 7.641,3.339 12.711,3.339 9.097,0 15.269,-3.179 18.519,-9.55 1.758,-3.481 2.641,-8.297 2.641,-14.469 v -40.25 h -10.84 v 39.539 c 0,4.609 -0.59,7.992 -1.762,10.141 -1.91,3.441 -5.507,5.16 -10.781,5.16 -4.379,0 -8.34,-1.5 -11.887,-4.508 -3.55,-3.012 -5.332,-8.691 -5.332,-17.051 v -33.281 h -10.55 v 86.359 h -0.008"
         style="fill:#ffffff;fill-opacity:1;fill-rule:nonzero;stroke:none"
         id="path50" />
      <path
         d="m 1263.47,85.8828 c 5.94,-5.7422 9.25,-12.2695 9.9,-19.5703 H 1262 c -1.26,5.5508 -3.79,9.9414 -7.57,13.1797 -3.78,3.2383 -9.08,4.8594 -15.91,4.8594 -8.33,0 -15.05,-2.9805 -20.17,-8.9493 -5.12,-5.9609 -7.68,-15.1015 -7.68,-27.4101 0,-10.0899 2.31,-18.2695 6.93,-24.5391 4.62,-6.2812 11.52,-9.4101 20.69,-9.4101 8.44,0 14.87,3.3008 19.28,9.8984 2.34,3.4805 4.09,8.0508 5.24,13.7109 h 11.37 c -1.01,-9.0585 -4.33,-16.6601 -9.96,-22.789 -6.76,-7.38283 -15.87,-11.07033 -27.34,-11.07033 -9.89,0 -18.19,3.02734 -24.91,9.08983 -8.84,8.0078 -13.26,20.3906 -13.26,37.1094 0,12.7109 3.32,23.1211 9.96,31.25 7.18,8.8281 17.08,13.25 29.71,13.25 10.78,0 19.14,-2.8711 25.09,-8.6094"
         style="fill:#ffffff;fill-opacity:1;fill-rule:nonzero;stroke:none"
         id="path52" />
      <path
         d="m 1302.39,15.5625 c 2.23,-1.7617 4.86,-2.6289 7.91,-2.6289 3.71,0 7.3,0.8594 10.78,2.5703 5.86,2.8477 8.79,7.5078 8.79,13.9766 v 8.4804 c -1.29,-0.8281 -2.94,-1.5078 -4.97,-2.0586 -2.03,-0.5507 -4.01,-0.9414 -5.97,-1.1718 l -6.37,-0.8203 c -3.82,-0.5079 -6.69,-1.2969 -8.62,-2.3985 -3.26,-1.8281 -4.89,-4.7578 -4.89,-8.7695 0,-3.0313 1.11,-5.4297 3.34,-7.1797 z m 22.2,28.4883 c 2.42,0.3125 4.04,1.3203 4.86,3.043 0.47,0.9375 0.7,2.289 0.7,4.0585 0,3.6094 -1.28,6.2305 -3.83,7.8516 -2.55,1.6289 -6.21,2.4375 -10.97,2.4375 -5.5,0 -9.39,-1.4883 -11.69,-4.4687 -1.29,-1.6524 -2.12,-4.1094 -2.51,-7.3594 h -9.84 c 0.2,7.75 2.7,13.1484 7.52,16.1875 4.82,3.043 10.41,4.5625 16.77,4.5625 7.37,0 13.36,-1.4102 17.97,-4.2227 4.57,-2.8086 6.85,-7.1875 6.85,-13.1172 V 16.8633 c 0,-1.0899 0.22,-1.9727 0.67,-2.6328 0.45,-0.6602 1.4,-1 2.84,-1 0.47,0 1,0.0312 1.58,0.0898 0.58,0.0625 1.21,0.1524 1.88,0.2617 V 5.79297 c -1.64,-0.47266 -2.89,-0.76172 -3.75,-0.88281 -0.86,-0.11719 -2.03,-0.17969 -3.52,-0.17969 -3.63,0 -6.27,1.29297 -7.91,3.87109 -0.86,1.3711 -1.46,3.30074 -1.82,5.80074 -2.15,-2.8085 -5.23,-5.24996 -9.26,-7.32027 -4.03,-2.07031 -8.46,-3.10937 -13.3,-3.10937 -5.82,0 -10.58,1.76953 -14.27,5.30078 -3.69,3.52736 -5.54,7.94926 -5.54,13.24996 0,5.8204 1.82,10.3204 5.45,13.5196 3.63,3.1992 8.4,5.1679 14.3,5.9101 l 16.82,2.0977"
         style="fill:#ffffff;fill-opacity:1;fill-rule:nonzero;stroke:none"
         id="path54" />
      <path
         d="m 1360.82,68.832 h 10.02 v -8.9101 c 2.97,3.6719 6.11,6.3086 9.43,7.9101 3.32,1.6016 7.01,2.3985 11.07,2.3985 8.91,0 14.92,-3.1094 18.05,-9.3203 1.72,-3.3985 2.58,-8.2579 2.58,-14.5899 V 6.07031 h -10.72 V 45.6211 c 0,3.832 -0.57,6.9102 -1.7,9.2617 -1.88,3.9102 -5.27,5.8594 -10.2,5.8594 -2.5,0 -4.55,-0.25 -6.15,-0.7617 -2.89,-0.8594 -5.43,-2.5782 -7.62,-5.1602 -1.76,-2.0664 -2.9,-4.207 -3.43,-6.418 -0.53,-2.2109 -0.79,-5.3593 -0.79,-9.4609 V 6.07031 h -10.55 V 68.832 h 0.01"
         style="fill:#ffffff;fill-opacity:1;fill-rule:nonzero;stroke:none"
         id="path56" />
      <path
         d="m 1442.1,15.5625 c 2.23,-1.7617 4.86,-2.6289 7.91,-2.6289 3.71,0 7.3,0.8594 10.78,2.5703 5.86,2.8477 8.79,7.5078 8.79,13.9766 v 8.4804 c -1.29,-0.8281 -2.94,-1.5078 -4.97,-2.0586 -2.03,-0.5507 -4.01,-0.9414 -5.97,-1.1718 l -6.37,-0.8203 c -3.82,-0.5079 -6.69,-1.2969 -8.62,-2.3985 -3.26,-1.8281 -4.89,-4.7578 -4.89,-8.7695 0,-3.0313 1.12,-5.4297 3.34,-7.1797 z m 22.21,28.4883 c 2.42,0.3125 4.04,1.3203 4.86,3.043 0.47,0.9375 0.7,2.289 0.7,4.0585 0,3.6094 -1.28,6.2305 -3.83,7.8516 -2.55,1.6289 -6.21,2.4375 -10.97,2.4375 -5.5,0 -9.39,-1.4883 -11.69,-4.4687 -1.29,-1.6524 -2.12,-4.1094 -2.51,-7.3594 h -9.84 c 0.2,7.75 2.7,13.1484 7.52,16.1875 4.82,3.043 10.41,4.5625 16.77,4.5625 7.37,0 13.36,-1.4102 17.97,-4.2227 4.57,-2.8086 6.85,-7.1875 6.85,-13.1172 V 16.8633 c 0,-1.0899 0.22,-1.9727 0.67,-2.6328 0.45,-0.6602 1.4,-1 2.84,-1 0.47,0 1,0.0312 1.58,0.0898 0.58,0.0625 1.21,0.1524 1.88,0.2617 V 5.79297 c -1.64,-0.47266 -2.89,-0.76172 -3.75,-0.88281 -0.86,-0.11719 -2.03,-0.17969 -3.52,-0.17969 -3.63,0 -6.27,1.29297 -7.91,3.87109 -0.86,1.3711 -1.46,3.30074 -1.82,5.80074 -2.15,-2.8085 -5.23,-5.24996 -9.26,-7.32027 -4.03,-2.07031 -8.46,-3.10937 -13.3,-3.10937 -5.82,0 -10.58,1.76953 -14.27,5.30078 -3.69,3.52736 -5.54,7.94926 -5.54,13.24996 0,5.8204 1.82,10.3204 5.45,13.5196 3.63,3.1992 8.4,5.1679 14.3,5.9101 l 16.82,2.0977"
         style="fill:#ffffff;fill-opacity:1;fill-rule:nonzero;stroke:none"
         id="path58" />
      <path
         d="m 1511.47,19.8438 c 2.84,-4.5313 7.38,-6.8008 13.64,-6.8008 4.86,0 8.85,2.0976 11.98,6.3008 3.13,4.1992 4.69,10.2187 4.69,18.0781 0,7.9297 -1.61,13.8008 -4.84,17.6094 -3.23,3.8125 -7.21,5.7109 -11.95,5.7109 -5.28,0 -9.57,-2.0313 -12.85,-6.0899 -3.29,-4.0585 -4.93,-10.039 -4.93,-17.9296 0.01,-6.7188 1.42,-12.3516 4.26,-16.8789 z m 23.54,47.0468 c 1.87,-1.1679 3.99,-3.2187 6.36,-6.1484 v 31.6992 h 10.14 V 6.07031 h -9.49 v 8.73049 c -2.45,-3.8672 -5.35,-6.66017 -8.7,-8.37892 -3.35,-1.71875 -7.18,-2.57813 -11.5,-2.57813 -6.97,0 -13,2.9375 -18.1,8.81645 -5.1,5.8828 -7.65,13.7031 -7.65,23.4726 0,9.1406 2.32,17.0586 6.97,23.7578 4.65,6.7032 11.29,10.0508 19.94,10.0508 4.8,0 8.81,-1.0195 12.03,-3.0508"
         style="fill:#ffffff;fill-opacity:1;fill-rule:nonzero;stroke:none"
         id="path60" />
      <path
         d="m 1581.82,15.5625 c 2.23,-1.7617 4.86,-2.6289 7.91,-2.6289 3.71,0 7.3,0.8594 10.78,2.5703 5.86,2.8477 8.79,7.5078 8.79,13.9766 v 8.4804 c -1.29,-0.8281 -2.94,-1.5078 -4.97,-2.0586 -2.03,-0.5507 -4.01,-0.9414 -5.97,-1.1718 l -6.37,-0.8203 c -3.82,-0.5079 -6.69,-1.2969 -8.62,-2.3985 -3.26,-1.8281 -4.89,-4.7578 -4.89,-8.7695 0,-3.0313 1.11,-5.4297 3.34,-7.1797 z m 22.21,28.4883 c 2.42,0.3125 4.04,1.3203 4.86,3.043 0.47,0.9375 0.7,2.289 0.7,4.0585 0,3.6094 -1.28,6.2305 -3.83,7.8516 -2.55,1.6289 -6.21,2.4375 -10.97,2.4375 -5.5,0 -9.39,-1.4883 -11.69,-4.4687 -1.29,-1.6524 -2.12,-4.1094 -2.51,-7.3594 h -9.84 c 0.2,7.75 2.7,13.1484 7.52,16.1875 4.82,3.043 10.41,4.5625 16.77,4.5625 7.37,0 13.36,-1.4102 17.97,-4.2227 4.57,-2.8086 6.85,-7.1875 6.85,-13.1172 V 16.8633 c 0,-1.0899 0.22,-1.9727 0.67,-2.6328 0.45,-0.6602 1.4,-1 2.84,-1 0.47,0 1,0.0312 1.58,0.0898 0.58,0.0625 1.21,0.1524 1.88,0.2617 V 5.79297 c -1.64,-0.47266 -2.89,-0.76172 -3.75,-0.88281 -0.86,-0.11719 -2.03,-0.17969 -3.52,-0.17969 -3.63,0 -6.27,1.29297 -7.91,3.87109 -0.86,1.3711 -1.46,3.30074 -1.82,5.80074 -2.15,-2.8085 -5.23,-5.24996 -9.26,-7.32027 -4.03,-2.07031 -8.46,-3.10937 -13.3,-3.10937 -5.82,0 -10.58,1.76953 -14.27,5.30078 -3.69,3.52736 -5.54,7.94926 -5.54,13.24996 0,5.8204 1.82,10.3204 5.45,13.5196 3.63,3.1992 8.4,5.1679 14.3,5.9101 l 16.82,2.0977"
         style="fill:#ffffff;fill-opacity:1;fill-rule:nonzero;stroke:none"
         id="path62" />
    </g>
  </g>
</svg>
