<?xml version="1.0" encoding="utf-8"?>
<!-- Generator: Adobe Illustrator 27.7.0, SVG Export Plug-In . SVG Version: 6.00 Build 0)  -->
<svg version="1.1" id="Layer_1" xmlns="http://www.w3.org/2000/svg" xmlns:xlink="http://www.w3.org/1999/xlink" x="0px" y="0px"
	 viewBox="0 0 72 9.5" style="enable-background:new 0 0 72 9.5;" xml:space="preserve">
<style type="text/css">
	.st0{fill:#EC3B28;}
	.st1{fill:#FFFFFF;}
</style>
<g>
	<rect y="0.2" class="st0" width="4.6" height="9.3"/>
	<rect x="13.7" y="0.2" class="st0" width="4.6" height="9.3"/>
	<path class="st0" d="M8.4,2.1l0.6-1.3L9.7,2C9.8,2.2,9.9,2.2,10,2.1l0.6-0.3l-0.4,1.8c-0.1,0.3,0.1,0.5,0.3,0.2L11.3,3l0.2,0.5
		c0.1,0.2,0.2,0.1,0.3,0.1l0.8-0.2l-0.3,1l0,0c0,0.1-0.1,0.2,0.1,0.3l0.3,0.2L11,6.3c-0.2,0.2-0.1,0.2-0.1,0.4l0.2,0.5L9.6,7
		C9.4,6.9,9.3,6.9,9.2,7.1l0.1,1.8H8.8l0.1-1.8c0-0.2-0.1-0.2-0.5-0.1L7,7.2l0.2-0.5c0.1-0.2,0.1-0.3-0.1-0.4L5.4,4.9l0.3-0.2
		c0.1-0.1,0.1-0.2,0.1-0.3L5.4,3.4l0.8,0.2c0.2,0,0.3,0,0.4-0.1l0.2-0.5l0.8,0.9C7.8,4,8,3.9,8,3.7L7.6,1.7l0.6,0.3
		C8.3,2.1,8.4,2.2,8.4,2.1"/>
	<path class="st1" d="M53.3,2.7c0,0.2,0.1,0.4,0.2,0.5c0.2,0.3,0.5,0.4,0.9,0.4c0.2,0,0.4,0,0.5-0.1c0.3-0.1,0.5-0.3,0.5-0.6
		c0-0.2-0.1-0.4-0.2-0.5c-0.1-0.1-0.3-0.2-0.6-0.2L54,2.2c-0.3-0.1-0.6-0.2-0.7-0.3C53.1,1.8,53,1.5,53,1.2c0-0.4,0.1-0.6,0.3-0.9
		c0.2-0.2,0.6-0.3,1-0.3c0.4,0,0.7,0.1,1,0.3c0.3,0.2,0.4,0.5,0.4,0.9h-0.5c0-0.2-0.1-0.4-0.2-0.5c-0.2-0.2-0.4-0.3-0.8-0.3
		c-0.3,0-0.5,0.1-0.6,0.2s-0.2,0.3-0.2,0.4c0,0.2,0.1,0.3,0.2,0.4c0.1,0.1,0.3,0.1,0.7,0.2l0.5,0.1c0.2,0.1,0.5,0.1,0.6,0.2
		c0.2,0.2,0.4,0.4,0.4,0.8c0,0.4-0.2,0.7-0.5,0.9c-0.3,0.2-0.7,0.3-1.1,0.3c-0.5,0-0.8-0.1-1.1-0.4c-0.3-0.2-0.4-0.6-0.4-1L53.3,2.7
		L53.3,2.7z"/>
	<path class="st1" d="M58.2,2.2c0.1,0,0.2-0.1,0.2-0.1c0,0,0-0.1,0-0.2c0-0.2-0.1-0.3-0.2-0.4c-0.1-0.1-0.3-0.1-0.5-0.1
		c-0.2,0-0.4,0.1-0.5,0.2c-0.1,0.1-0.1,0.2-0.1,0.3h-0.4c0-0.4,0.1-0.6,0.3-0.7s0.5-0.2,0.8-0.2c0.3,0,0.6,0.1,0.8,0.2
		c0.2,0.1,0.3,0.3,0.3,0.6v1.6c0,0,0,0.1,0,0.1s0.1,0,0.1,0h0.1l0.1,0V4C59.1,4,59,4,59,4c0,0-0.1,0-0.2,0c-0.2,0-0.3-0.1-0.3-0.2
		c0-0.1-0.1-0.2-0.1-0.3c-0.1,0.1-0.2,0.2-0.4,0.3c-0.2,0.1-0.4,0.1-0.6,0.1c-0.3,0-0.5-0.1-0.6-0.2s-0.2-0.4-0.2-0.6
		c0-0.3,0.1-0.5,0.2-0.6c0.2-0.1,0.4-0.2,0.6-0.3L58.2,2.2z M57.2,3.5c0.1,0.1,0.2,0.1,0.3,0.1c0.2,0,0.3,0,0.5-0.1
		c0.3-0.1,0.4-0.3,0.4-0.6V2.5c-0.1,0-0.1,0.1-0.2,0.1s-0.2,0-0.3,0l-0.3,0c-0.2,0-0.3,0.1-0.4,0.1C57.1,2.9,57,3,57,3.2
		C57,3.3,57.1,3.5,57.2,3.5"/>
	<path class="st1" d="M59.8,1.1h0.5v0.4c0.1-0.2,0.3-0.3,0.4-0.4c0.2-0.1,0.3-0.1,0.5-0.1c0.4,0,0.7,0.1,0.8,0.4
		c0.1,0.1,0.1,0.4,0.1,0.6v1.8h-0.5V2.2c0-0.2,0-0.3-0.1-0.4c-0.1-0.2-0.2-0.3-0.5-0.3c-0.1,0-0.2,0-0.3,0c-0.1,0-0.2,0.1-0.3,0.2
		c-0.1,0.1-0.1,0.2-0.2,0.3c0,0.1,0,0.2,0,0.4v1.5h-0.5L59.8,1.1L59.8,1.1z"/>
	<path class="st1" d="M63,0.4h0.5v0.8h0.5v0.4h-0.5v1.8c0,0.1,0,0.2,0.1,0.2c0,0,0.1,0,0.2,0h0.1l0.1,0V4c0,0-0.1,0-0.2,0
		c0,0-0.1,0-0.2,0c-0.2,0-0.4-0.1-0.5-0.2C63,3.7,63,3.6,63,3.4V1.5h-0.4V1.1H63V0.4L63,0.4z"/>
	<path class="st1" d="M66.3,1.2c0.2,0.1,0.3,0.2,0.4,0.4c0.1,0.1,0.2,0.3,0.2,0.5c0,0.1,0,0.3,0,0.6h-2c0,0.3,0.1,0.5,0.2,0.7
		c0.1,0.2,0.3,0.3,0.6,0.3c0.2,0,0.4-0.1,0.6-0.2c0.1-0.1,0.1-0.2,0.2-0.3h0.5c0,0.1-0.1,0.2-0.1,0.3s-0.2,0.2-0.2,0.3
		C66.4,3.9,66.2,4,66,4c-0.1,0-0.2,0-0.4,0c-0.3,0-0.6-0.1-0.9-0.4s-0.4-0.6-0.4-1.1c0-0.5,0.1-0.8,0.4-1.1s0.6-0.4,0.9-0.4
		C65.9,1.1,66.1,1.1,66.3,1.2 M66.4,2.3c0-0.2-0.1-0.4-0.1-0.5c-0.1-0.2-0.3-0.3-0.6-0.3c-0.2,0-0.4,0.1-0.5,0.2
		c-0.2,0.2-0.2,0.4-0.2,0.6H66.4z M66.3,0l-0.7,0.8h-0.4L65.7,0L66.3,0L66.3,0z"/>
	<path class="st1" d="M55.7,5.8c0.3,0.3,0.4,0.6,0.4,0.9h-0.5c-0.1-0.2-0.2-0.4-0.3-0.6c-0.2-0.1-0.4-0.2-0.7-0.2
		c-0.4,0-0.7,0.1-0.9,0.4c-0.2,0.3-0.3,0.7-0.3,1.2c0,0.4,0.1,0.8,0.3,1.1C53.9,8.9,54.2,9,54.6,9c0.4,0,0.7-0.1,0.9-0.4
		c0.1-0.2,0.2-0.4,0.2-0.6h0.5c0,0.4-0.2,0.7-0.5,1c-0.3,0.3-0.7,0.5-1.2,0.5c-0.4,0-0.8-0.1-1.1-0.4c-0.4-0.4-0.6-0.9-0.6-1.7
		c0-0.6,0.2-1,0.5-1.4c0.3-0.4,0.8-0.6,1.3-0.6C55.1,5.4,55.5,5.6,55.7,5.8"/>
	<path class="st1" d="M58.5,7.7c0.1,0,0.2-0.1,0.2-0.1c0,0,0-0.1,0-0.2c0-0.2-0.1-0.3-0.2-0.3c-0.1-0.1-0.3-0.1-0.5-0.1
		c-0.2,0-0.4,0.1-0.5,0.2c-0.1,0.1-0.1,0.2-0.1,0.3H57c0-0.3,0.1-0.6,0.3-0.7s0.5-0.2,0.8-0.2c0.3,0,0.6,0.1,0.8,0.2
		c0.2,0.1,0.3,0.3,0.3,0.6v1.6c0,0.1,0,0.1,0,0.1s0.1,0,0.1,0h0.1l0.1,0v0.4c-0.1,0-0.1,0-0.2,0c0,0-0.1,0-0.2,0
		c-0.2,0-0.3-0.1-0.3-0.2c0-0.1-0.1-0.1-0.1-0.3c-0.1,0.1-0.2,0.2-0.4,0.3c-0.2,0.1-0.4,0.1-0.6,0.1c-0.3,0-0.5-0.1-0.6-0.2
		s-0.2-0.4-0.2-0.6c0-0.3,0.1-0.5,0.2-0.6c0.2-0.1,0.4-0.2,0.6-0.3L58.5,7.7z M57.5,9c0.1,0.1,0.2,0.1,0.3,0.1c0.2,0,0.3,0,0.5-0.1
		c0.3-0.1,0.4-0.3,0.4-0.6V8c-0.1,0-0.1,0.1-0.2,0.1s-0.2,0-0.3,0.1l-0.3,0c-0.2,0-0.3,0.1-0.4,0.1c-0.2,0.1-0.2,0.2-0.2,0.4
		C57.3,8.8,57.4,8.9,57.5,9"/>
	<path class="st1" d="M60.1,6.6h0.5V7c0.1-0.2,0.3-0.3,0.4-0.3c0.2-0.1,0.3-0.1,0.5-0.1c0.4,0,0.7,0.1,0.8,0.4
		c0.1,0.2,0.1,0.4,0.1,0.7v1.8h-0.5V7.6c0-0.2,0-0.3-0.1-0.4c-0.1-0.2-0.2-0.3-0.5-0.3c-0.1,0-0.2,0-0.3,0c-0.1,0-0.2,0.1-0.3,0.2
		c-0.1,0.1-0.1,0.2-0.2,0.3s0,0.2,0,0.4v1.5h-0.5L60.1,6.6L60.1,6.6z"/>
	<path class="st1" d="M64.7,7.7c0.1,0,0.2-0.1,0.2-0.1c0,0,0-0.1,0-0.2c0-0.2-0.1-0.3-0.2-0.3c-0.1-0.1-0.3-0.1-0.5-0.1
		c-0.2,0-0.4,0.1-0.5,0.2c-0.1,0.1-0.1,0.2-0.1,0.3h-0.4c0-0.3,0.1-0.6,0.3-0.7s0.5-0.2,0.8-0.2c0.3,0,0.6,0.1,0.8,0.2
		c0.2,0.1,0.3,0.3,0.3,0.6v1.6c0,0.1,0,0.1,0,0.1s0.1,0,0.1,0h0.1l0.1,0v0.4c-0.1,0-0.1,0-0.2,0s-0.1,0-0.2,0
		c-0.2,0-0.3-0.1-0.3-0.2C65,9.2,65,9.1,65,9c-0.1,0.1-0.2,0.2-0.4,0.3S64.2,9.5,64,9.5c-0.3,0-0.5-0.1-0.6-0.2s-0.2-0.4-0.2-0.6
		c0-0.3,0.1-0.5,0.2-0.6c0.2-0.1,0.4-0.2,0.6-0.3L64.7,7.7z M63.7,9c0.1,0.1,0.2,0.1,0.3,0.1c0.2,0,0.3,0,0.5-0.1
		c0.3-0.1,0.4-0.3,0.4-0.6V8c-0.1,0-0.1,0.1-0.2,0.1c-0.1,0-0.2,0-0.3,0.1l-0.3,0c-0.2,0-0.3,0.1-0.4,0.1c-0.2,0.1-0.2,0.2-0.2,0.4
		C63.6,8.8,63.6,8.9,63.7,9"/>
	<path class="st1" d="M67.9,6.7c0.1,0.1,0.2,0.1,0.3,0.3V5.5h0.4v3.9h-0.4V9c-0.1,0.2-0.2,0.3-0.4,0.4s-0.3,0.1-0.5,0.1
		c-0.3,0-0.6-0.1-0.8-0.4c-0.2-0.3-0.3-0.6-0.3-1.1c0-0.4,0.1-0.8,0.3-1.1c0.2-0.3,0.5-0.4,0.9-0.4C67.6,6.5,67.7,6.6,67.9,6.7
		 M66.8,8.8C67,9,67.2,9.1,67.4,9.1c0.2,0,0.4-0.1,0.5-0.3s0.2-0.5,0.2-0.8c0-0.4-0.1-0.6-0.2-0.8c-0.1-0.2-0.3-0.3-0.5-0.3
		c-0.2,0-0.4,0.1-0.6,0.3S66.6,7.7,66.6,8C66.6,8.3,66.7,8.6,66.8,8.8"/>
	<path class="st1" d="M71,7.7c0.1,0,0.2-0.1,0.2-0.1c0,0,0-0.1,0-0.2c0-0.2-0.1-0.3-0.2-0.3c-0.1-0.1-0.3-0.1-0.5-0.1
		c-0.2,0-0.4,0.1-0.5,0.2c-0.1,0.1-0.1,0.2-0.1,0.3h-0.4c0-0.3,0.1-0.6,0.3-0.7c0.2-0.1,0.5-0.2,0.8-0.2c0.3,0,0.6,0.1,0.8,0.2
		c0.2,0.1,0.3,0.3,0.3,0.6v1.6c0,0.1,0,0.1,0,0.1s0.1,0,0.1,0h0.1L72,9v0.4c-0.1,0-0.1,0-0.2,0s-0.1,0-0.2,0c-0.2,0-0.3-0.1-0.3-0.2
		c0-0.1-0.1-0.1-0.1-0.3c-0.1,0.1-0.2,0.2-0.4,0.3s-0.4,0.1-0.6,0.1c-0.3,0-0.5-0.1-0.6-0.2s-0.2-0.4-0.2-0.6c0-0.3,0.1-0.5,0.2-0.6
		c0.2-0.1,0.4-0.2,0.6-0.3L71,7.7z M70,9c0.1,0.1,0.2,0.1,0.3,0.1c0.2,0,0.3,0,0.5-0.1c0.3-0.1,0.4-0.3,0.4-0.6V8
		C71.1,8,71.1,8,71,8.1c-0.1,0-0.2,0-0.3,0.1l-0.3,0c-0.2,0-0.3,0.1-0.4,0.1c-0.2,0.1-0.2,0.2-0.2,0.4C69.8,8.8,69.9,8.9,70,9"/>
	<polygon class="st1" points="26.4,0.1 26.9,0.1 26.9,1.7 28.9,1.7 28.9,0.1 29.4,0.1 29.4,3.9 28.9,3.9 28.9,2.1 26.9,2.1 
		26.9,3.9 26.4,3.9 	"/>
	<path class="st1" d="M32.1,1.2c0.2,0.1,0.3,0.2,0.4,0.4c0.1,0.1,0.2,0.3,0.2,0.5c0,0.1,0,0.3,0,0.6h-2c0,0.3,0.1,0.5,0.2,0.7
		c0.1,0.2,0.3,0.3,0.6,0.3c0.2,0,0.4-0.1,0.6-0.2c0.1-0.1,0.1-0.2,0.2-0.3h0.5c0,0.1,0,0.2-0.1,0.3c-0.1,0.1-0.2,0.2-0.2,0.3
		C32.2,3.8,32,4,31.8,4c-0.1,0-0.2,0-0.4,0c-0.4,0-0.6-0.1-0.9-0.4S30.2,3,30.2,2.6c0-0.5,0.1-0.8,0.4-1.1s0.6-0.4,1-0.4
		C31.7,1.1,31.9,1.1,32.1,1.2 M32.2,2.3c0-0.2-0.1-0.4-0.1-0.5c-0.1-0.2-0.3-0.3-0.6-0.3c-0.2,0-0.4,0.1-0.5,0.2
		c-0.1,0.2-0.2,0.4-0.2,0.6H32.2L32.2,2.3z"/>
	<path class="st1" d="M35,2.2c0.1,0,0.2-0.1,0.2-0.1c0,0,0-0.1,0-0.2c0-0.2-0.1-0.3-0.2-0.4c-0.1-0.1-0.3-0.1-0.5-0.1
		c-0.2,0-0.4,0.1-0.5,0.2C34,1.7,33.9,1.8,33.9,2h-0.4c0-0.4,0.1-0.6,0.3-0.7s0.5-0.2,0.8-0.2c0.3,0,0.6,0.1,0.8,0.2
		c0.2,0.1,0.3,0.3,0.3,0.6v1.6c0,0,0,0.1,0,0.1s0.1,0,0.1,0h0.1l0.1,0V4c-0.1,0-0.1,0-0.2,0c-0.1,0-0.1,0-0.2,0
		c-0.2,0-0.3-0.1-0.3-0.2c0-0.1-0.1-0.2-0.1-0.3c-0.1,0.1-0.2,0.2-0.4,0.3C34.6,4,34.4,4,34.2,4c-0.3,0-0.5-0.1-0.6-0.2
		s-0.2-0.4-0.2-0.6c0-0.3,0.1-0.5,0.2-0.6c0.2-0.1,0.4-0.2,0.6-0.3L35,2.2z M34,3.5c0.1,0.1,0.2,0.1,0.3,0.1c0.2,0,0.3,0,0.5-0.1
		c0.3-0.1,0.4-0.3,0.4-0.6V2.5c-0.1,0-0.1,0.1-0.2,0.1s-0.2,0-0.3,0l-0.3,0c-0.2,0-0.3,0.1-0.4,0.1c-0.2,0.1-0.2,0.2-0.2,0.4
		C33.8,3.3,33.9,3.4,34,3.5"/>
	<rect x="36.6" y="0.1" class="st1" width="0.5" height="3.9"/>
	<path class="st1" d="M38,0.3h0.5v0.8h0.5v0.4h-0.5v1.8c0,0.1,0,0.2,0.1,0.2c0,0,0.1,0,0.2,0h0.1l0.1,0v0.4c0,0-0.1,0-0.2,0
		c-0.1,0-0.1,0-0.2,0c-0.2,0-0.4-0.1-0.5-0.2C38,3.7,38,3.5,38,3.4V1.5h-0.4V1.1H38L38,0.3L38,0.3z"/>
	<path class="st1" d="M39.5,0.1H40v1.4c0.1-0.1,0.2-0.2,0.3-0.3c0.2-0.1,0.3-0.1,0.6-0.1c0.4,0,0.7,0.1,0.8,0.4
		c0.1,0.2,0.1,0.4,0.1,0.6v1.8h-0.5V2.2c0-0.2,0-0.4-0.1-0.5c-0.1-0.1-0.2-0.2-0.5-0.2c-0.2,0-0.4,0.1-0.5,0.2
		C40.1,1.8,40,2.1,40,2.5v1.5h-0.5L39.5,0.1L39.5,0.1z"/>
	<path class="st1" d="M29.1,5.8c0.3,0.3,0.4,0.6,0.4,0.9H29c-0.1-0.2-0.2-0.4-0.3-0.6C28.5,6,28.3,5.9,28,5.9
		c-0.4,0-0.7,0.1-0.9,0.4S26.7,7,26.7,7.5c0,0.4,0.1,0.8,0.3,1.1s0.5,0.4,0.9,0.4c0.4,0,0.7-0.1,0.9-0.4C28.9,8.5,29,8.3,29.1,8h0.5
		c0,0.4-0.2,0.8-0.5,1c-0.3,0.3-0.7,0.5-1.2,0.5c-0.4,0-0.8-0.1-1.1-0.4c-0.4-0.4-0.6-0.9-0.6-1.7c0-0.6,0.1-1,0.5-1.4
		C27,5.7,27.4,5.5,28,5.5C28.5,5.4,28.8,5.6,29.1,5.8"/>
	<path class="st1" d="M31.8,7.7c0.1,0,0.2-0.1,0.2-0.1c0,0,0-0.1,0-0.2c0-0.2-0.1-0.3-0.2-0.3c-0.1-0.1-0.3-0.1-0.5-0.1
		c-0.2,0-0.4,0.1-0.5,0.2c-0.1,0.1-0.1,0.2-0.1,0.3h-0.4c0-0.3,0.1-0.6,0.3-0.7s0.5-0.2,0.8-0.2c0.3,0,0.6,0.1,0.8,0.2
		c0.2,0.1,0.3,0.3,0.3,0.6v1.6c0,0.1,0,0.1,0,0.1s0.1,0,0.1,0h0.1l0.1,0v0.4c-0.1,0-0.1,0-0.2,0c0,0-0.1,0-0.2,0
		c-0.2,0-0.3-0.1-0.3-0.2c0-0.1-0.1-0.1-0.1-0.3c-0.1,0.1-0.2,0.2-0.4,0.3c-0.2,0.1-0.4,0.1-0.6,0.1c-0.3,0-0.5-0.1-0.6-0.2
		s-0.2-0.4-0.2-0.6c0-0.3,0.1-0.5,0.2-0.6c0.2-0.1,0.4-0.2,0.6-0.3L31.8,7.7z M30.8,9c0.1,0.1,0.2,0.1,0.4,0.1c0.2,0,0.3,0,0.5-0.1
		C31.9,8.8,32,8.6,32,8.3V8c-0.1,0-0.1,0.1-0.2,0.1c-0.1,0-0.2,0-0.3,0.1l-0.3,0c-0.2,0-0.3,0.1-0.4,0.1c-0.1,0.1-0.2,0.2-0.2,0.4
		C30.7,8.8,30.7,8.9,30.8,9"/>
	<path class="st1" d="M33.5,6.6h0.5V7c0.1-0.2,0.3-0.3,0.4-0.3c0.2-0.1,0.3-0.1,0.5-0.1c0.4,0,0.7,0.1,0.8,0.4
		c0.1,0.2,0.1,0.4,0.1,0.7v1.8h-0.5V7.6c0-0.2,0-0.3-0.1-0.4C35.1,7,34.9,7,34.7,7c-0.1,0-0.2,0-0.3,0c-0.1,0-0.2,0.1-0.3,0.2
		C34,7.3,34,7.4,34,7.5s0,0.2,0,0.4v1.5h-0.5L33.5,6.6L33.5,6.6z"/>
	<path class="st1" d="M38.1,7.7c0.1,0,0.2-0.1,0.2-0.1c0,0,0-0.1,0-0.2c0-0.2-0.1-0.3-0.2-0.3c-0.1-0.1-0.3-0.1-0.5-0.1
		c-0.2,0-0.4,0.1-0.5,0.2c-0.1,0.1-0.1,0.2-0.1,0.3h-0.4c0-0.3,0.1-0.6,0.3-0.7s0.5-0.2,0.8-0.2c0.3,0,0.6,0.1,0.8,0.2
		c0.2,0.1,0.3,0.3,0.3,0.6v1.6c0,0.1,0,0.1,0,0.1s0.1,0,0.1,0H39l0.1,0v0.4c-0.1,0-0.1,0-0.2,0c0,0-0.1,0-0.2,0
		c-0.2,0-0.3-0.1-0.3-0.2c0-0.1-0.1-0.1-0.1-0.3c-0.1,0.1-0.2,0.2-0.4,0.3s-0.4,0.1-0.6,0.1c-0.3,0-0.5-0.1-0.6-0.2
		s-0.2-0.4-0.2-0.6c0-0.3,0.1-0.5,0.2-0.6c0.2-0.1,0.4-0.2,0.6-0.3L38.1,7.7z M37.1,9c0.1,0.1,0.2,0.1,0.3,0.1c0.2,0,0.3,0,0.5-0.1
		c0.3-0.1,0.4-0.3,0.4-0.6V8c-0.1,0-0.1,0.1-0.2,0.1c-0.1,0-0.2,0-0.3,0.1l-0.3,0c-0.2,0-0.3,0.1-0.4,0.1c-0.2,0.1-0.2,0.2-0.2,0.4
		C36.9,8.8,37,8.9,37.1,9"/>
	<path class="st1" d="M41.2,6.7c0.1,0.1,0.2,0.1,0.3,0.3V5.5H42v3.9h-0.4V9c-0.1,0.2-0.2,0.3-0.4,0.4c-0.2,0.1-0.3,0.1-0.5,0.1
		c-0.3,0-0.6-0.1-0.8-0.4s-0.3-0.6-0.3-1.1c0-0.4,0.1-0.8,0.3-1.1c0.2-0.3,0.5-0.4,0.9-0.4C40.9,6.6,41.1,6.6,41.2,6.7 M40.2,8.8
		c0.1,0.2,0.3,0.3,0.6,0.3c0.2,0,0.4-0.1,0.5-0.3s0.2-0.5,0.2-0.8c0-0.4-0.1-0.6-0.2-0.8C41.2,7,41,6.9,40.8,6.9
		c-0.2,0-0.4,0.1-0.6,0.3S40,7.7,40,8C40,8.3,40.1,8.6,40.2,8.8"/>
	<path class="st1" d="M44.3,7.7c0.1,0,0.2-0.1,0.2-0.1c0,0,0-0.1,0-0.2c0-0.2-0.1-0.3-0.2-0.3c-0.1-0.1-0.3-0.1-0.5-0.1
		c-0.2,0-0.4,0.1-0.5,0.2c-0.1,0.1-0.1,0.2-0.1,0.3h-0.4c0-0.3,0.1-0.6,0.3-0.7s0.5-0.2,0.8-0.2c0.3,0,0.6,0.1,0.8,0.2
		C45,6.9,45.1,7,45.1,7.3v1.6c0,0.1,0,0.1,0,0.1s0.1,0,0.1,0h0.1l0.1,0v0.4c-0.1,0-0.1,0-0.2,0c0,0-0.1,0-0.2,0
		c-0.2,0-0.3-0.1-0.3-0.2c0-0.1-0.1-0.1-0.1-0.3c-0.1,0.1-0.2,0.2-0.4,0.3s-0.4,0.1-0.6,0.1c-0.3,0-0.5-0.1-0.6-0.2
		s-0.2-0.4-0.2-0.6c0-0.3,0.1-0.5,0.2-0.6c0.2-0.1,0.4-0.2,0.6-0.3L44.3,7.7z M43.3,9c0.1,0.1,0.2,0.1,0.3,0.1c0.2,0,0.3,0,0.5-0.1
		c0.3-0.1,0.4-0.3,0.4-0.6V8c-0.1,0-0.1,0.1-0.2,0.1c-0.1,0-0.2,0-0.3,0.1l-0.3,0c-0.2,0-0.3,0.1-0.4,0.1c-0.2,0.1-0.2,0.2-0.2,0.4
		C43.2,8.8,43.2,8.9,43.3,9"/>
</g>
</svg>
