<?xml version="1.0" encoding="utf-8"?>
<!-- Generator: Adobe Illustrator 27.7.0, SVG Export Plug-In . SVG Version: 6.00 Build 0)  -->
<svg version="1.1" id="Layer_1" xmlns="http://www.w3.org/2000/svg" xmlns:xlink="http://www.w3.org/1999/xlink" x="0px" y="0px"
	 viewBox="0 0 32 32" style="enable-background:new 0 0 32 32;" xml:space="preserve">
<style type="text/css">
	.st0{fill:#FBF2EA;}
</style>
<g>
	<path class="st0" d="M16,0C7.1,0,0,7.1,0,16c0,8.8,7.1,16,16,16c8.8,0,16-7.1,16-16C31.9,7.1,24.8,0,16,0z M24.9,19.6
		c0,0.7-0.2,1.5-0.4,2.2C24,23,23,24,21.8,24.4c-0.7,0.3-1.4,0.4-2.2,0.4c-1,0-1.3,0-3.7,0c-2.4,0-2.7,0-3.7,0
		c-0.7,0-1.5-0.2-2.2-0.4C8.9,24,8,23,7.5,21.8c-0.3-0.7-0.4-1.4-0.4-2.1C7,18.7,7,18.4,7,16s0-2.7,0.1-3.7c0-0.7,0.2-1.5,0.4-2.2
		C7.9,8.9,8.9,8,10.1,7.5c0.7-0.3,1.4-0.4,2.2-0.4C13.2,7,13.5,7,16,7l0,0c2.4,0,2.7,0,3.7,0.1c0.7,0,1.5,0.2,2.2,0.4
		c1.2,0.5,2.2,1.4,2.6,2.6c0.3,0.7,0.4,1.4,0.4,2.2c0,0.9,0,1.3,0,3.7S24.9,18.7,24.9,19.6z"/>
	<path class="st0" d="M22.9,10.7C22.6,9.9,22,9.3,21.2,9c-0.5-0.2-1.1-0.3-1.7-0.3c-0.9-0.1-1.2-0.1-3.6-0.1v0c-2.4,0-2.7,0-3.6,0.1
		c-0.6,0-1.1,0.1-1.7,0.3C9.9,9.3,9.3,9.9,9,10.7c-0.2,0.5-0.3,1.1-0.3,1.7c-0.1,0.9-0.1,1.2-0.1,3.6s0,2.7,0.1,3.6
		c0,0.6,0.1,1.1,0.3,1.7c0.3,0.8,0.9,1.4,1.7,1.7c0.5,0.2,1.1,0.3,1.7,0.3c0.9,0,1.2,0,3.6,0s2.7,0,3.6,0c0.6,0,1.1-0.1,1.7-0.3
		c0.8-0.3,1.4-0.9,1.7-1.7c0.2-0.5,0.3-1.1,0.3-1.7c0-0.9,0-1.2,0-3.6s0-2.7,0-3.6C23.2,11.8,23.1,11.2,22.9,10.7z M16,20.5
		c-2.5,0-4.6-2-4.6-4.6s2.1-4.6,4.6-4.6c2.5,0,4.6,2.1,4.6,4.6S18.5,20.5,16,20.5z M20.7,12.3c-0.6,0-1.1-0.5-1.1-1.1
		s0.5-1.1,1.1-1.1s1.1,0.5,1.1,1.1S21.3,12.3,20.7,12.3z"/>
	<path class="st0" d="M16,13c-1.6,0-3,1.3-3,3c0,1.6,1.3,3,3,3c1.6,0,3-1.3,3-3C18.9,14.3,17.6,13,16,13z"/>
</g>
</svg>
