<?xml version="1.0" encoding="utf-8"?>
<!-- Generator: Adobe Illustrator 27.7.0, SVG Export Plug-In . SVG Version: 6.00 Build 0)  -->
<svg version="1.1" id="Layer_1" xmlns="http://www.w3.org/2000/svg" xmlns:xlink="http://www.w3.org/1999/xlink" x="0px" y="0px"
	 viewBox="0 0 32 32" style="enable-background:new 0 0 32 32;" xml:space="preserve">
<style type="text/css">
	.st0{fill:#FBF2EA;}
</style>
<path class="st0" d="M16,0C7.2,0,0,7.2,0,16s7.2,16,16,16s16-7.2,16-16S24.8,0,16,0 M12.6,22H9.2V11.7h3.4V22z M10.9,10.3L10.9,10.3
	C9.7,10.3,9,9.5,9,8.5c0-1,0.8-1.8,1.9-1.8s1.9,0.8,1.9,1.8C12.9,9.5,12.1,10.3,10.9,10.3 M25,22h-3.4v-5.5c0-1.4-0.5-2.3-1.7-2.3
	c-1,0-1.5,0.6-1.8,1.3C18,15.6,18,15.9,18,16.2V22h-3.4c0,0,0-9.4,0-10.3H18v1.5c0.5-0.7,1.3-1.7,3.1-1.7c2.3,0,4,1.5,4,4.6V22z"/>
</svg>
