<?xml version="1.0" encoding="utf-8"?>
<!-- Generator: Adobe Illustrator 27.7.0, SVG Export Plug-In . SVG Version: 6.00 Build 0)  -->
<svg version="1.1" id="Layer_1" xmlns="http://www.w3.org/2000/svg" xmlns:xlink="http://www.w3.org/1999/xlink" x="0px" y="0px"
	 viewBox="0 0 145.42 283.54" style="enable-background:new 0 0 145.42 283.54;" xml:space="preserve">
<style type="text/css">
	.st0{fill:none;stroke:#231F20;stroke-linecap:round;stroke-linejoin:round;stroke-miterlimit:10;}
</style>
<g>
	<path class="st0" d="M58.59,38.09c-0.16-4.24-0.85-8.6-3.11-12.2c-3.93-6.24-12.59-8.91-19.43-6.15
		c-6.84,2.77-11.2,10.53-10.21,17.84c0.62,4.59,3.04,8.7,4.68,13.03s2.42,9.48-0.08,13.38c-2.09,3.27-5.94,4.85-9.11,7.09
		c-3.51,2.48-6.27,5.85-8.98,9.18C7.94,85.67,3.42,91.3,1.65,98.05c-1.45,5.56-0.91,11.42-0.36,17.13
		c1.4,14.54,8.22,28.78,4.84,43.6c-0.31,1.35,0.85,2.83,1.69,3.92s1.45,1.62,2.44,0.66c0.92-0.89,0.69-2.37,0.54-3.64
		c-0.4-3.59,0.05-6.01,0.94-9.31c-0.45,1.09,2.82,12.9,4.54,0.09c0.16-1.16,0.53-2.17,0.18-3.29c-6.06-19.33-2.25-19.18-2.77-26.99
		c-0.61-9.19,0.62-16.34,7.78-22.12c0.77-0.62,1.69-1.18,2.67-1.08c1.83,0.19,2.62,2.38,2.9,4.19c3.25,21.29-8.57,42.66-5.72,64.01
		c1.09,8.21,4.35,16.22,3.81,24.49c-0.28,4.4-1.64,8.65-2.91,12.88c-3.29,10.93-6.11,22-8.44,33.17c-0.65,3.13-1.23,6.55,0.23,9.4
		c1.04,2.04,2.97,3.44,4.84,4.77c5.18,3.7,11.02,7.57,17.33,6.8c1.42-0.17,2.93-0.67,3.69-1.88c1.9-2.98-2.03-6.08-4.59-8.52
		c-4.05-3.86-5.32-9.92-4.75-15.49c0.57-5.56,2.71-10.82,4.59-16.09c4.35-12.21,7.37-24.9,9-37.77c5.27,9.62,5.12,21.22,4.09,32.15
		c-1.03,10.92-2.78,22.06-0.27,32.74c0.19,0.82,0.45,1.7,1.14,2.18c0.57,0.4,1.31,0.44,2.01,0.47c6.73,0.25,13.46,0.5,20.19,0.75
		c1,0.04,2.22-0.06,2.64-0.96c0.21-0.45,0.14-0.99-0.02-1.47c-1.78-5.3-11.28-3.58-13.59-8.67c-0.55-1.21-0.55-2.59-0.44-3.91
		c0.69-8.52,5.39-16.15,7.53-24.43c2.99-11.59,0.84-23.8-0.84-35.65c-3.65-25.78-4.97-51.89-3.93-77.91
		c0.16-3.98,0.36-8.05-0.7-11.89c-1.21-4.33-3.94-8-7.01-11.2c-2.33-2.44-8.66-6.26-8.12-10.11c0.51-3.6,6.69-5.38,8.76-8.04
		C58.37,47.42,58.75,42.51,58.59,38.09z"/>
	<path class="st0" d="M82.58,154.24c0.45,6.76,1.82,16.38,0.56,23.04c-1.67,8.85-6.99,16.95-7.07,25.95
		c-0.06,6.64,2.76,12.94,3.76,19.5c2.08,13.6-3.65,27.99-0.27,41.11c0.33,1.29-0.3,2.64-1.5,3.22c-3.23,1.56-4.98,5.98-5.51,9.82
		c-0.15,1.11-0.3,2.3-1.06,3.12c-0.65,0.71-1.63,1-2.56,1.25c-3.3,0.92-7.62,1.5-9.3-1.72c-0.63-1.22-0.61-2.68-0.12-3.96
		c1.69-4.44,6.96-5.85,9.15-9.79c1.83-3.3,1-7.37,0.11-11.04c-1.28-5.31-2.56-10.62-3.85-15.93c-1.1-4.54-2.2-9.13-2.25-13.81
		c-0.06-5.84,1.52-11.6,1.61-17.44c0.19-12.14-5.96-23.38-8.53-35.24c-2.35-10.9-1.65-22.19-0.92-33.31
		c0.51-7.95,1.1-16.17,4.83-23.21c1.9-3.59,4.65-7.02,4.71-11.08c0.04-2.79-1.23-5.41-2.47-7.91l-7.65-15.43
		c-0.45,5.07-0.93,10.24-2.93,14.92c-1.31,3.07-3.25,5.86-4.42,8.99c-2.42,6.48-1.39,14.09-4.91,20.05
		c-2.23,3.78-6.16,6.61-7.33,10.84c-1.16,4.17,0.66,8.5,1.93,12.64c0.8,2.63,1.3,5.63,0.77,8.26c-0.27,1.35-2.13,1.46-2.56,0.16
		c-0.15-0.44-0.34-0.86-0.59-1.25c-1.3-2.02-4.83-2.88-5.71,0.63c-0.15,0.6-0.15,1.24-0.08,1.86l0.74,6.42
		c0.2,1.7-2.21,2.34-2.84,0.75c-2.78-7.04-0.57-19.16,0.86-27.53c0.72-4.24,1.91-11.17,2.63-15.41c0.78-4.54,1.5-9.13,3.02-13.49
		c1.27-3.65,3.08-7.08,4.45-10.69c1.82-4.82,2.84-9.89,3.84-14.94c1.42-7.13,2.84-14.27,4.26-21.4l0.23-0.96
		c0.21-0.88,0.61-1.69,1.17-2.4c2.14-2.73,4.64-5.08,7.74-6.68c2.83-1.46,5.98-2.17,8.92-3.38c2.94-1.21,5.83-3.09,7.13-6
		c1.3-2.9,0.36-6.95-2.58-8.16c-0.64-0.26-1.35-0.39-1.92-0.77c-1.48-0.99-1.47-3.14-1.28-4.91c0.68-6.3,1.53-12.59,2.57-18.84
		c0.24-1.46,0.5-2.95,1.25-4.22c1.11-1.9,3.16-3.07,5.22-3.85c4.75-1.79,10.11-1.93,14.95-0.4c2.27,0.72,4.51,1.86,5.97,3.75
		c2.61,3.37,2.1,8.28,0.31,12.15c-1.8,3.86-4.68,7.12-6.77,10.83s-3.35,8.33-1.6,12.21c1.3,2.88,4.01,4.84,6.6,6.65
		c1.87,1.31,3.79,2.64,5.98,3.26c1.83,0.51,3.77,0.51,5.6,1.04c3.97,1.15,6.76,4.61,9.29,7.87c2.78,3.6,5.72,7.67,5.34,12.2
		l0.63,5.52c0.53,8.87,1.77,17.69,3.69,26.36c1.3,5.89,2.93,11.74,3.54,17.75c0.86,8.37-0.27,16.86,0.61,25.23
		c0.72,6.95,2.79,14.13,0.53,20.74c-0.36,1.04-1.66,4.23-2.84,4.26c-0.95,0.03-1.54-2.27-1.32-3.66c0.26-1.65,0.29-3.1,0.66-4.63
		c0.52-2.11,0.44-4.35-0.41-6.29c-0.23-0.53-0.9-0.7-1.38-0.38c-0.46,0.31-1.11,0.48-1.48,1.25c-0.82,1.67-1.85,4.81-3.54,3.01
		c-0.47-0.5-0.77-1.17-0.84-1.86c-0.22-2.16,1.01-3.91,1.77-5.8c2.74-6.84-0.9-14.36-3.05-21.41c-4.78-15.69-2.18-33.28-9.08-48.16
		c-1.86,4.95-3.72,9.9-5.58,14.85c-1.15,3.06-2.31,6.21-2.25,9.48c0.1,4.68,2.69,8.89,4.92,13.01
		c10.21,18.87,14.08,41.1,10.85,62.31c-0.82,5.4-2.1,10.77-2.12,16.24c-0.05,12.4,6.31,24.18,6.04,36.57
		c-0.11,5.04-1.31,10-1.64,15.03c-0.32,5.03,0.37,10.42,3.55,14.34c1.77,2.17,4.17,3.73,6.11,5.75c2.31,2.4,4.03,5.92,2.14,9.07
		c-0.44,0.73-1.07,1.34-1.8,1.79c-4.24,2.59-8.81-0.35-10-4.28c-0.53-1.75-0.55-3.82-1.91-5.05c-1.56-1.41-4.08-0.95-5.91-1.98
		c-3.16-1.8-2.44-6.41-2.14-10.04c1.16-14.09-10.75-26.86-9.4-40.94c0.36-3.79,1.68-7.7,0.45-11.3c-0.62-1.81-1.83-3.34-2.8-4.99
		c-2.19-3.72-3.15-8.01-4.05-12.23c-2.23-10.49-4.27-21.01-6.14-31.57c0,0-1.08-6.03-1.62-6.18
		C83.2,153.24,82.51,153.09,82.58,154.24z"/>
	<path class="st0" d="M28.7,157.01c0.86-0.36,2.42-0.23,2.82,0.62c0,0,0.52,1.15-1.4,1.62c1.18-0.37,2.55-0.05,3.46,0.77
		c0.23,0.21,0.21,0.57-0.04,0.75c-0.99,0.72-2.37,0.56-3.5,0.4c0.72,0.16,1.5,0.35,1.97,0.91c0.48,0.56,0.4,1.62-0.3,1.85
		c-0.68,0.22-1.94-0.56-2.6-0.74"/>
	<path class="st0" d="M124.75,164.35c-0.81-0.12-2.11-0.3-2.92-0.43c-0.19-0.03-0.4-0.06-0.58,0.03c-0.55,0.27-0.11,1.16,0.47,1.34
		c0.58,0.17,1.22,0.24,1.76,0.42l-2.21,0.36c-0.24,0.04-0.41,0.29-0.33,0.52c0.25,0.73,1.03,1.28,1.81,1.18
		c-0.75,0.61-1.64,1.05-2.58,1.26c-0.32,0.07-0.55,0.41-0.41,0.72c0.33,0.73,1.55,1.08,2.42,0.78c0.68-0.23,1.56-0.77,2.21-1.09"/>
	<path class="st0" d="M120.34,246.26c-2.59,0.01-5.54-0.13-7.2-2.11c-2-2.37-1.06-5.89-0.56-8.95c2.01-12.47-5.45-24.78-4.59-37.38
		c0.41-5.99,2.68-11.7,3.35-17.67c1.08-9.65-2.06-19.19-4.09-28.68c-2.03-9.5-2.75-20.1,2.54-28.24c0.84-1.29,1.84-2.55,2.13-4.06
		c0.26-1.32-0.05-2.68-0.35-4c-3.67-16.36-4.68-33.31-2.98-49.99c0.26-2.54,0.57-5.18-0.28-7.59c-1.1-3.12-3.96-5.33-5.26-8.38
		c-0.86-2.02-0.97-4.26-1.07-6.45c-0.2-4.26-0.38-8.6,0.77-12.7c1.15-4.1,3.9-8,7.92-9.4c4.33-1.51,9.33,0.22,12.61,3.43
		s5.06,7.67,6.06,12.15c1.6,7.14,1.09,15.48-4.15,20.6c-1.1,1.07-2.41,2.01-3.07,3.4c-1.23,2.57,0.26,5.7,2.39,7.6
		c2.13,1.89,4.84,3.02,7.06,4.8c5.44,4.35,7.18,12.7,3.94,18.85c-1.34,2.55-3.48,5.37-2.24,7.97c0.62,1.29,1.92,2.07,3.08,2.91
		c3.63,2.63,6.33,6.51,7.55,10.82c3.51,12.43-5.19,24.71-7.65,37.39c-1.64,8.44-0.6,17.69-4.94,25.1c-0.91,1.56-2.06,3.02-2.55,4.76
		c-0.51,1.8-0.27,3.72-0.12,5.59c1.16,14.13-3.1,28.13-3.76,42.29c-0.09,1.99-0.1,4.06,0.75,5.85c1.89,4,10.92,4.41,10.89,7.93
		C136.46,248.12,123.47,246.25,120.34,246.26z"/>
</g>
</svg>
