<?xml version="1.0" encoding="UTF-8" standalone="no"?>
<!-- Created with Inkscape (http://www.inkscape.org/) -->

<svg
   version="1.1"
   id="svg2"
   width="216.90668"
   height="27.76"
   viewBox="0 0 216.90668 27.76"
   sodipodi:docname="santecanada.eps"
   xmlns:inkscape="http://www.inkscape.org/namespaces/inkscape"
   xmlns:sodipodi="http://sodipodi.sourceforge.net/DTD/sodipodi-0.dtd"
   xmlns="http://www.w3.org/2000/svg"
   xmlns:svg="http://www.w3.org/2000/svg">
  <defs
     id="defs6" />
  <sodipodi:namedview
     id="namedview4"
     pagecolor="#ffffff"
     bordercolor="#000000"
     borderopacity="0.25"
     inkscape:showpageshadow="2"
     inkscape:pageopacity="0.0"
     inkscape:pagecheckerboard="0"
     inkscape:deskcolor="#d1d1d1" />
  <g
     id="g8"
     inkscape:groupmode="layer"
     inkscape:label="ink_ext_XXXXXX"
     transform="matrix(1.3333333,0,0,-1.3333333,0,27.76)">
    <g
       id="g10"
       transform="scale(0.1)">
      <path
         d="M 0,208.18 H 102.23 V 0 H 0 v 208.18"
         style="fill:#e82434;fill-opacity:1;fill-rule:nonzero;stroke:none"
         id="path12" />
      <path
         d="M 328.988,208.18 H 431.219 V 0 H 328.988 v 208.18"
         style="fill:#e82434;fill-opacity:1;fill-rule:nonzero;stroke:none"
         id="path14" />
      <path
         d="m 201.43,164.898 14.609,29.731 14.5,-28.629 c 1.813,-3.031 3.262,-2.781 6.16,-1.328 l 12.449,6.156 -8.097,-39.988 c -1.692,-7.852 2.777,-10.16 7.609,-4.82 l 17.762,18.96 4.699,-10.75 c 1.578,-3.261 3.988,-2.769 7.129,-2.171 l 18.359,3.871 -6.16,-23.2 -0.129,-0.48 c -0.718,-3.031 -2.172,-5.559 1.219,-7.012 l 6.52,-3.258 -37.821,-32.0191 c -3.859,-3.9804 -2.527,-5.1992 -1.078,-9.6718 l 3.5,-10.7383 -35.269,6.4101 c -4.352,1.0899 -7.371,1.0899 -7.493,-2.4218 l 1.454,-40.4688 H 210.73 l 1.461,40.3516 c 0,3.9765 -3.031,3.8672 -10.16,2.4062 l -32.621,-6.2773 4.231,10.7383 c 1.437,4.1211 1.808,6.8906 -1.461,9.6718 l -38.66,31.5391 7.128,4.352 c 2.063,1.57 2.172,3.257 1.09,6.769 l -7.25,23.551 18.614,-3.981 c 5.187,-1.211 6.636,0 7.957,2.899 l 5.203,10.629 18.359,-20.789 c 3.27,-3.86 7.859,-1.321 6.41,4.242 l -8.82,43.367 13.648,-7.848 c 2.172,-1.332 4.469,-1.703 5.801,0.84"
         style="fill:#e82434;fill-opacity:1;fill-rule:nonzero;stroke:none"
         id="path16" />
      <path
         d="m 608.094,143.879 c 0.258,-4.879 1.367,-8.848 3.328,-11.891 3.73,-5.699 10.289,-8.547 19.699,-8.547 4.211,0 8.051,0.618 11.512,1.879 6.699,2.418 10.051,6.758 10.051,13.008 0,4.692 -1.422,8.031 -4.262,10.024 -2.879,1.949 -7.379,3.648 -13.512,5.097 l -11.289,2.641 c -7.379,1.719 -12.598,3.609 -15.66,5.68 -5.301,3.589 -7.949,8.96 -7.949,16.109 0,7.73 2.601,14.082 7.808,19.043 5.211,4.957 12.582,7.437 22.121,7.437 8.782,0 16.243,-2.179 22.379,-6.531 6.141,-4.348 9.211,-11.316 9.211,-20.887 H 650.57 c -0.558,4.61 -1.757,8.137 -3.59,10.61 -3.41,4.488 -9.187,6.738 -17.359,6.738 -6.59,0 -11.328,-1.449 -14.211,-4.34 -2.898,-2.898 -4.34,-6.258 -4.34,-10.09 0,-4.218 1.703,-7.3 5.114,-9.257 2.238,-1.25 7.289,-2.813 15.16,-4.692 l 11.687,-2.75 c 5.641,-1.332 9.992,-3.14 13.063,-5.449 5.297,-4.02 7.949,-9.859 7.949,-17.52 0,-9.531 -3.383,-16.351 -10.141,-20.453 -6.761,-4.097 -14.621,-6.148 -23.57,-6.148 -10.441,0 -18.609,2.73 -24.512,8.199 -5.91,5.43 -8.797,12.789 -8.687,22.09 h 10.961"
         style="fill:#ffffff;fill-opacity:1;fill-rule:nonzero;stroke:none"
         id="path18" />
      <path
         d="m 693.652,125.602 c 2.231,-1.762 4.86,-2.633 7.911,-2.633 3.71,0 7.3,0.859 10.781,2.57 5.859,2.852 8.789,7.512 8.789,13.981 V 148 c -1.289,-0.828 -2.942,-1.512 -4.973,-2.059 -2.027,-0.55 -4.008,-0.941 -5.969,-1.171 l -6.371,-0.821 c -3.816,-0.508 -6.687,-1.301 -8.617,-2.398 -3.262,-1.832 -4.89,-4.762 -4.89,-8.77 0,-3.031 1.109,-5.429 3.339,-7.179 z m 22.2,28.488 c 2.421,0.308 4.039,1.32 4.859,3.039 0.473,0.941 0.699,2.293 0.699,4.062 0,3.61 -1.277,6.231 -3.828,7.848 -2.551,1.633 -6.211,2.441 -10.969,2.441 -5.5,0 -9.39,-1.492 -11.691,-4.468 -1.289,-1.653 -2.121,-4.114 -2.512,-7.364 h -9.84 c 0.203,7.75 2.703,13.153 7.524,16.192 4.816,3.039 10.41,4.558 16.769,4.558 7.367,0 13.36,-1.41 17.969,-4.218 4.57,-2.809 6.852,-7.192 6.852,-13.121 v -36.161 c 0,-1.089 0.218,-1.968 0.668,-2.628 0.449,-0.661 1.402,-1 2.839,-1 0.469,0 1,0.031 1.582,0.089 0.579,0.063 1.207,0.153 1.879,0.262 v -7.793 c -1.64,-0.469 -2.89,-0.758 -3.75,-0.879 -0.859,-0.121 -2.031,-0.179 -3.519,-0.179 -3.629,0 -6.27,1.289 -7.91,3.871 -0.86,1.371 -1.461,3.3 -1.821,5.8 -2.148,-2.812 -5.23,-5.25 -9.261,-7.32 -4.028,-2.07 -8.457,-3.109 -13.297,-3.109 -5.821,0 -10.582,1.769 -14.274,5.297 -3.687,3.531 -5.527,7.941 -5.527,13.242 0,5.82 1.82,10.32 5.449,13.519 3.629,3.2 8.399,5.168 14.301,5.91 l 16.809,2.11"
         style="fill:#ffffff;fill-opacity:1;fill-rule:nonzero;stroke:none"
         id="path20" />
      <path
         d="m 752.082,178.859 h 10.02 v -8.91 c 2.968,3.672 6.109,6.313 9.429,7.91 3.321,1.602 7.012,2.403 11.071,2.403 8.91,0 14.921,-3.114 18.05,-9.321 1.719,-3.402 2.578,-8.261 2.578,-14.589 v -40.25 h -10.718 v 39.558 c 0,3.828 -0.571,6.91 -1.699,9.262 -1.879,3.906 -5.27,5.859 -10.2,5.859 -2.5,0 -4.55,-0.25 -6.152,-0.761 -2.891,-0.86 -5.43,-2.579 -7.617,-5.161 -1.762,-2.07 -2.903,-4.211 -3.434,-6.418 -0.527,-2.211 -0.789,-5.363 -0.789,-9.461 V 116.109 H 752.07 v 62.75 h 0.012"
         style="fill:#ffffff;fill-opacity:1;fill-rule:nonzero;stroke:none"
         id="path22" />
      <path
         d="m 824.051,196.379 h 10.66 v -17.52 h 10.019 v -8.609 h -10.019 v -40.961 c 0,-2.187 0.742,-3.648 2.23,-4.391 0.821,-0.429 2.192,-0.636 4.102,-0.636 0.508,0 1.051,0.008 1.641,0.039 0.589,0.027 1.269,0.09 2.046,0.199 v -8.379 c -1.207,-0.351 -2.468,-0.609 -3.777,-0.762 -1.312,-0.148 -2.723,-0.23 -4.25,-0.23 -4.922,0 -8.262,1.262 -10.019,3.781 -1.762,2.52 -2.641,5.789 -2.641,9.809 v 41.531 h -8.5 v 8.609 h 8.5 v 17.52 h 0.008"
         style="fill:#ffffff;fill-opacity:1;fill-rule:nonzero;stroke:none"
         id="path24" />
      <path
         d="M 896.723,204.121 881.07,187.18 h -8.09 l 10.723,16.929 h 13.02 z m 4.218,-51.621 c -0.429,4.57 -1.418,8.219 -2.968,10.949 -2.871,5.082 -7.653,7.621 -14.352,7.621 -4.801,0 -8.828,-1.75 -12.078,-5.242 -3.25,-3.488 -4.98,-7.937 -5.172,-13.328 z m -3.781,24.629 c 4.16,-2.09 7.32,-4.789 9.492,-8.117 2.102,-3.16 3.5,-6.864 4.192,-11.071 0.617,-2.89 0.929,-7.5 0.929,-13.832 h -45.64 c 0.199,-6.39 1.68,-11.507 4.48,-15.371 2.789,-3.859 7.11,-5.789 12.957,-5.789 5.461,0 9.821,1.832 13.082,5.473 1.821,2.117 3.11,4.566 3.871,7.359 h 10.368 c -0.27,-2.301 -1.18,-4.871 -2.719,-7.711 -1.539,-2.84 -3.27,-5.148 -5.168,-6.941 -3.184,-3.117 -7.113,-5.231 -11.801,-6.328 -2.519,-0.621 -5.371,-0.942 -8.551,-0.942 -7.761,0 -14.339,2.84 -19.742,8.532 -5.398,5.679 -8.097,13.64 -8.097,23.879 0,10.082 2.71,18.261 8.148,24.55 5.43,6.289 12.543,9.43 21.312,9.43 4.45,0.02 8.739,-1.031 12.887,-3.121"
         style="fill:#ffffff;fill-opacity:1;fill-rule:nonzero;stroke:none"
         id="path26" />
      <path
         d="m 661.352,85.9102 c 5.941,-5.7383 9.25,-12.2696 9.902,-19.5704 h -11.371 c -1.262,5.5508 -3.789,9.9415 -7.57,13.1797 -3.782,3.2422 -9.083,4.8594 -15.911,4.8594 -8.332,0 -15.05,-2.9805 -20.172,-8.9492 -5.117,-5.9609 -7.679,-15.1016 -7.679,-27.4102 0,-10.0898 2.312,-18.2695 6.929,-24.539 4.622,-6.2813 11.524,-9.4102 20.692,-9.4102 8.441,0 14.871,3.3008 19.281,9.8985 2.34,3.4804 4.09,8.0507 5.238,13.7109 h 11.372 C 671.051,28.6211 667.73,21.0195 662.102,14.8906 655.344,7.51172 646.23,3.82031 634.762,3.82031 c -9.891,0 -18.192,3.03125 -24.91,9.08989 -8.84,8.0117 -13.258,20.3906 -13.258,37.1093 0,12.711 3.316,23.1211 9.957,31.25 7.179,8.8321 17.082,13.25 29.711,13.25 10.781,0.0118 19.14,-2.8593 25.09,-8.6093"
         style="fill:#ffffff;fill-opacity:1;fill-rule:nonzero;stroke:none"
         id="path28" />
      <path
         d="m 700.273,15.6016 c 2.231,-1.7618 4.86,-2.6328 7.911,-2.6328 3.707,0 7.296,0.8593 10.777,2.5703 5.859,2.8515 8.793,7.5117 8.793,13.9804 V 38 c -1.293,-0.8281 -2.941,-1.5117 -4.973,-2.0586 -2.027,-0.5508 -4.008,-0.9414 -5.968,-1.1719 l -6.372,-0.8203 c -3.82,-0.5078 -6.687,-1.3008 -8.621,-2.3984 -3.257,-1.832 -4.886,-4.7617 -4.886,-8.7695 0,-3.0313 1.109,-5.4297 3.339,-7.1797 z m 22.2,28.4882 c 2.418,0.3086 4.039,1.3204 4.859,3.0391 0.469,0.9414 0.699,2.293 0.699,4.0625 0,3.6094 -1.277,6.2305 -3.828,7.8477 -2.551,1.6328 -6.211,2.4414 -10.973,2.4414 -5.5,0 -9.386,-1.4922 -11.687,-4.4688 -1.289,-1.6523 -2.121,-4.1133 -2.512,-7.3633 h -9.84 c 0.2,7.75 2.7,13.1524 7.52,16.1914 4.82,3.0391 10.41,4.5586 16.769,4.5586 7.372,0 13.364,-1.4101 17.973,-4.2187 4.57,-2.8086 6.848,-7.1914 6.848,-13.1211 V 16.8984 c 0,-1.0898 0.222,-1.9687 0.672,-2.6289 0.449,-0.6601 1.398,-1 2.84,-1 0.468,0 1,0.0313 1.578,0.0899 0.582,0.0625 1.211,0.1523 1.882,0.2617 V 5.82813 c -1.64,-0.46875 -2.89,-0.75782 -3.75,-0.87891 -0.863,-0.12109 -2.031,-0.17969 -3.519,-0.17969 -3.633,0 -6.274,1.28906 -7.91,3.8711 -0.864,1.37107 -1.461,3.30077 -1.821,5.80077 -2.152,-2.8125 -5.23,-5.24999 -9.261,-7.32031 -4.032,-2.07031 -8.461,-3.10937 -13.301,-3.10937 -5.82,0 -10.578,1.76953 -14.27,5.29687 -3.687,3.53121 -5.539,7.95311 -5.539,13.25001 0,5.8203 1.821,10.3203 5.45,13.5195 3.628,3.2032 8.402,5.1719 14.3,5.9102 l 16.821,2.1015"
         style="fill:#ffffff;fill-opacity:1;fill-rule:nonzero;stroke:none"
         id="path30" />
      <path
         d="m 758.703,68.8594 h 10.02 v -8.9102 c 2.968,3.6719 6.109,6.3125 9.429,7.9102 3.321,1.6015 7.008,2.4023 11.071,2.4023 8.91,0 14.918,-3.1133 18.05,-9.3203 1.719,-3.4023 2.579,-8.2617 2.579,-14.5898 V 6.10156 H 799.133 V 45.6484 c 0,3.8321 -0.57,6.9102 -1.699,9.2618 -1.883,3.9101 -5.274,5.8593 -10.204,5.8593 -2.5,0 -4.546,-0.25 -6.148,-0.7578 -2.891,-0.8633 -5.43,-2.582 -7.621,-5.1601 -1.758,-2.0703 -2.898,-4.211 -3.43,-6.4219 -0.527,-2.2109 -0.789,-5.3594 -0.789,-9.4609 V 6.10156 H 758.691 V 68.8594 h 0.012"
         style="fill:#ffffff;fill-opacity:1;fill-rule:nonzero;stroke:none"
         id="path32" />
      <path
         d="m 839.98,15.6016 c 2.231,-1.7618 4.864,-2.6328 7.911,-2.6328 3.711,0 7.3,0.8593 10.781,2.5703 5.859,2.8515 8.789,7.5117 8.789,13.9804 V 38 c -1.289,-0.8281 -2.938,-1.5117 -4.969,-2.0586 C 860.461,35.3906 858.48,35 856.523,34.7695 l -6.371,-0.8203 c -3.82,-0.5078 -6.691,-1.3008 -8.621,-2.3984 -3.258,-1.832 -4.89,-4.7617 -4.89,-8.7695 0,-3.0313 1.121,-5.4297 3.339,-7.1797 z m 22.211,28.4882 c 2.422,0.3086 4.039,1.3204 4.86,3.0391 0.472,0.9414 0.703,2.293 0.703,4.0625 0,3.6094 -1.281,6.2305 -3.832,7.8477 -2.551,1.6328 -6.211,2.4414 -10.969,2.4414 -5.5,0 -9.39,-1.4922 -11.691,-4.4688 -1.289,-1.6523 -2.121,-4.1133 -2.508,-7.3633 h -9.844 c 0.203,7.75 2.703,13.1524 7.524,16.1914 4.82,3.0391 10.41,4.5586 16.769,4.5586 7.367,0 13.36,-1.4101 17.969,-4.2187 4.57,-2.8086 6.851,-7.1914 6.851,-13.1211 V 16.8984 c 0,-1.0898 0.219,-1.9687 0.668,-2.6289 0.45,-0.6601 1.403,-1 2.84,-1 0.473,0 1,0.0313 1.582,0.0899 0.578,0.0625 1.207,0.1523 1.879,0.2617 V 5.82813 c -1.64,-0.46875 -2.89,-0.75782 -3.75,-0.87891 -0.859,-0.12109 -2.031,-0.17969 -3.519,-0.17969 -3.629,0 -6.27,1.28906 -7.91,3.8711 -0.86,1.37107 -1.461,3.30077 -1.821,5.80077 -2.148,-2.8125 -5.23,-5.24999 -9.262,-7.32031 -4.027,-2.07031 -8.457,-3.10937 -13.296,-3.10937 -5.821,0 -10.582,1.76953 -14.274,5.29687 -3.687,3.53121 -5.539,7.95311 -5.539,13.25001 0,5.8203 1.82,10.3203 5.449,13.5195 3.633,3.2032 8.403,5.1719 14.301,5.9102 l 16.82,2.1015"
         style="fill:#ffffff;fill-opacity:1;fill-rule:nonzero;stroke:none"
         id="path34" />
      <path
         d="m 909.352,19.8789 c 2.839,-4.5273 7.378,-6.8008 13.64,-6.8008 4.86,0 8.852,2.1016 11.981,6.3008 3.129,4.1992 4.687,10.2227 4.687,18.082 0,7.9297 -1.609,13.8008 -4.84,17.6094 -3.226,3.8086 -7.207,5.711 -11.949,5.711 -5.277,0 -9.57,-2.0313 -12.848,-6.0899 -3.293,-4.0625 -4.929,-10.043 -4.929,-17.9297 0.008,-6.7304 1.418,-12.3515 4.258,-16.8828 z m 23.539,47.0508 c 1.871,-1.168 3.992,-3.2188 6.363,-6.1484 v 31.6992 h 10.137 V 6.10938 h -9.489 v 8.73042 c -2.449,-3.871 -5.351,-6.66011 -8.699,-8.37886 -3.351,-1.72266 -7.18,-2.58203 -11.5,-2.58203 -6.973,0 -13,2.9414 -18.101,8.82029 -5.098,5.8789 -7.649,13.6992 -7.649,23.4727 0,9.1367 2.32,17.0586 6.969,23.7578 4.648,6.6992 11.289,10.0508 19.941,10.0508 4.797,0 8.809,-1.0196 12.028,-3.0508"
         style="fill:#ffffff;fill-opacity:1;fill-rule:nonzero;stroke:none"
         id="path36" />
      <path
         d="m 979.703,15.6016 c 2.231,-1.7618 4.86,-2.6328 7.91,-2.6328 3.707,0 7.297,0.8593 10.778,2.5703 5.859,2.8515 8.789,7.5117 8.789,13.9804 V 38 c -1.29,-0.8281 -2.94,-1.5117 -4.97,-2.0586 -2.03,-0.5508 -4.007,-0.9414 -5.968,-1.1719 l -6.371,-0.8203 c -3.82,-0.5078 -6.687,-1.3008 -8.617,-2.3984 -3.262,-1.832 -4.891,-4.7617 -4.891,-8.7695 0,-3.0313 1.11,-5.4297 3.34,-7.1797 z m 22.207,28.4882 c 2.42,0.3086 4.04,1.3204 4.86,3.0391 0.47,0.9414 0.7,2.293 0.7,4.0625 0,3.6094 -1.28,6.2305 -3.83,7.8477 -2.55,1.6328 -6.206,2.4414 -10.968,2.4414 -5.5,0 -9.391,-1.4922 -11.692,-4.4688 -1.289,-1.6523 -2.117,-4.1133 -2.507,-7.3633 h -9.84 c 0.199,7.75 2.699,13.1524 7.519,16.1914 4.821,3.0391 10.411,4.5586 16.77,4.5586 7.368,0 13.358,-1.4101 17.968,-4.2187 4.57,-2.8086 6.85,-7.1914 6.85,-13.1211 V 16.8984 c 0,-1.0898 0.22,-1.9687 0.67,-2.6289 0.45,-0.6601 1.4,-1 2.84,-1 0.47,0 1,0.0313 1.58,0.0899 0.58,0.0625 1.21,0.1523 1.88,0.2617 V 5.82813 c -1.64,-0.46875 -2.89,-0.75782 -3.75,-0.87891 -0.86,-0.12109 -2.03,-0.17969 -3.52,-0.17969 -3.63,0 -6.27,1.28906 -7.91,3.8711 -0.86,1.37107 -1.46,3.30077 -1.82,5.80077 -2.15,-2.8125 -5.23,-5.24999 -9.257,-7.32031 -4.031,-2.07031 -8.461,-3.10937 -13.301,-3.10937 -5.82,0 -10.582,1.76953 -14.269,5.29687 -3.692,3.53121 -5.539,7.95311 -5.539,13.25001 0,5.8203 1.816,10.3203 5.449,13.5195 3.629,3.2032 8.398,5.1719 14.301,5.9102 l 16.816,2.1015"
         style="fill:#ffffff;fill-opacity:1;fill-rule:nonzero;stroke:none"
         id="path38" />
      <path
         d="m 1202.88,203.125 h 11.78 v -35.57 h 44.24 v 35.57 h 11.78 v -86.07 h -11.78 v 40.25 h -44.24 v -40.25 h -11.78 v 86.07"
         style="fill:#ffffff;fill-opacity:1;fill-rule:nonzero;stroke:none"
         id="path40" />
      <path
         d="m 1333.5,153.434 c -0.42,4.57 -1.42,8.222 -2.96,10.961 -2.87,5.082 -7.65,7.621 -14.35,7.621 -4.8,0 -8.83,-1.75 -12.08,-5.243 -3.25,-3.488 -4.98,-7.937 -5.17,-13.328 h 34.56 z m -3.78,24.64 c 4.16,-2.09 7.32,-4.789 9.49,-8.121 2.1,-3.156 3.5,-6.859 4.19,-11.066 0.62,-2.891 0.93,-7.5 0.93,-13.832 h -45.64 c 0.2,-6.391 1.68,-11.508 4.48,-15.371 2.79,-3.86 7.11,-5.789 12.96,-5.789 5.46,0 9.82,1.832 13.08,5.468 1.82,2.121 3.11,4.571 3.87,7.364 h 10.37 c -0.27,-2.301 -1.18,-4.872 -2.72,-7.711 -1.54,-2.84 -3.27,-5.153 -5.17,-6.942 -3.18,-3.121 -7.11,-5.23 -11.8,-6.328 -2.52,-0.621 -5.37,-0.941 -8.55,-0.941 -7.76,0 -14.34,2.84 -19.74,8.531 -5.4,5.68 -8.1,13.641 -8.1,23.879 0,10.082 2.71,18.262 8.15,24.551 5.43,6.289 12.54,9.429 21.31,9.429 4.45,0.008 8.74,-1.031 12.89,-3.121"
         style="fill:#ffffff;fill-opacity:1;fill-rule:nonzero;stroke:none"
         id="path42" />
      <path
         d="m 1372.25,126.535 c 2.23,-1.762 4.86,-2.629 7.91,-2.629 3.71,0 7.3,0.86 10.78,2.571 5.86,2.847 8.79,7.507 8.79,13.976 v 8.492 c -1.29,-0.832 -2.94,-1.511 -4.97,-2.058 -2.03,-0.551 -4.01,-0.942 -5.97,-1.172 l -6.37,-0.82 c -3.82,-0.508 -6.69,-1.301 -8.62,-2.399 -3.26,-1.832 -4.89,-4.762 -4.89,-8.769 0,-3.043 1.11,-5.442 3.34,-7.192 z m 22.2,28.488 c 2.42,0.313 4.04,1.321 4.86,3.043 0.47,0.938 0.7,2.289 0.7,4.059 0,3.609 -1.28,6.23 -3.83,7.852 -2.55,1.628 -6.21,2.437 -10.97,2.437 -5.5,0 -9.39,-1.488 -11.69,-4.469 -1.29,-1.648 -2.12,-4.109 -2.51,-7.359 h -9.84 c 0.2,7.75 2.7,13.148 7.52,16.187 4.82,3.043 10.41,4.563 16.77,4.563 7.37,0 13.36,-1.41 17.97,-4.223 4.57,-2.808 6.85,-7.187 6.85,-13.117 v -36.16 c 0,-1.09 0.22,-1.973 0.67,-2.633 0.45,-0.656 1.4,-1 2.84,-1 0.47,0 1,0.031 1.58,0.094 0.58,0.058 1.21,0.148 1.88,0.258 v -7.789 c -1.64,-0.469 -2.89,-0.762 -3.75,-0.879 -0.86,-0.121 -2.03,-0.184 -3.52,-0.184 -3.63,0 -6.27,1.293 -7.91,3.871 -0.86,1.371 -1.46,3.301 -1.82,5.801 -2.15,-2.809 -5.23,-5.25 -9.26,-7.32 -4.03,-2.071 -8.46,-3.11 -13.3,-3.11 -5.82,0 -10.58,1.77 -14.27,5.301 -3.69,3.527 -5.54,7.949 -5.54,13.25 0,5.82 1.82,10.32 5.45,13.52 3.63,3.199 8.4,5.168 14.3,5.91 l 16.82,2.097"
         style="fill:#ffffff;fill-opacity:1;fill-rule:nonzero;stroke:none"
         id="path44" />
      <path
         d="m 1430.97,203.125 h 10.55 v -86.07 h -10.55 v 86.07"
         style="fill:#ffffff;fill-opacity:1;fill-rule:nonzero;stroke:none"
         id="path46" />
      <path
         d="m 1462.57,197.324 h 10.66 v -17.519 h 10.02 v -8.61 h -10.02 v -40.961 c 0,-2.187 0.74,-3.648 2.23,-4.39 0.82,-0.43 2.19,-0.641 4.1,-0.641 0.51,0 1.05,0.012 1.64,0.043 0.59,0.027 1.27,0.09 2.05,0.199 v -8.379 c -1.21,-0.351 -2.47,-0.613 -3.78,-0.761 -1.31,-0.149 -2.72,-0.231 -4.25,-0.231 -4.92,0 -8.26,1.262 -10.02,3.781 -1.76,2.52 -2.64,5.79 -2.64,9.809 v 41.52 h -8.5 v 8.621 h 8.5 v 17.519 h 0.01"
         style="fill:#ffffff;fill-opacity:1;fill-rule:nonzero;stroke:none"
         id="path48" />
      <path
         d="m 1496.92,203.414 h 10.55 v -32.109 c 2.5,3.16 4.75,5.39 6.74,6.679 3.4,2.231 7.64,3.34 12.71,3.34 9.1,0 15.27,-3.179 18.52,-9.551 1.76,-3.476 2.64,-8.296 2.64,-14.468 v -40.25 h -10.84 v 39.539 c 0,4.609 -0.59,7.992 -1.76,10.14 -1.91,3.442 -5.51,5.161 -10.78,5.161 -4.38,0 -8.34,-1.5 -11.89,-4.508 -3.55,-3.012 -5.33,-8.692 -5.33,-17.051 v -33.281 h -10.55 v 86.359 h -0.01"
         style="fill:#ffffff;fill-opacity:1;fill-rule:nonzero;stroke:none"
         id="path50" />
      <path
         d="m 1263.47,86.8555 c 5.94,-5.7422 9.25,-12.2696 9.9,-19.5703 H 1262 c -1.26,5.5507 -3.79,9.9414 -7.57,13.1796 -3.78,3.2383 -9.08,4.8594 -15.91,4.8594 -8.33,0 -15.05,-2.9804 -20.17,-8.9492 -5.12,-5.9609 -7.68,-15.1016 -7.68,-27.4102 0,-10.0898 2.31,-18.2695 6.93,-24.539 4.62,-6.2813 11.52,-9.4102 20.69,-9.4102 8.44,0 14.87,3.3008 19.28,9.8985 2.34,3.4804 4.09,8.0507 5.24,13.7109 h 11.37 c -1.01,-9.0586 -4.33,-16.6602 -9.96,-22.7891 -6.76,-7.38277 -15.87,-11.07027 -27.34,-11.07027 -9.89,0 -18.19,3.03125 -24.91,9.08987 -8.84,8.0078 -13.26,20.3906 -13.26,37.1093 0,12.711 3.32,23.1211 9.96,31.25 7.18,8.8321 17.08,13.25 29.71,13.25 10.78,0 19.14,-2.871 25.09,-8.6093"
         style="fill:#ffffff;fill-opacity:1;fill-rule:nonzero;stroke:none"
         id="path52" />
      <path
         d="m 1302.39,16.5352 c 2.23,-1.7618 4.86,-2.6289 7.91,-2.6289 3.71,0 7.3,0.8593 10.78,2.5703 5.86,2.8476 8.79,7.5078 8.79,13.9765 v 8.4805 c -1.29,-0.8281 -2.94,-1.5078 -4.97,-2.0586 -2.03,-0.5508 -4.01,-0.9414 -5.97,-1.1719 l -6.37,-0.8164 c -3.82,-0.5117 -6.69,-1.3008 -8.62,-2.4023 -3.26,-1.8281 -4.89,-4.7578 -4.89,-8.7696 0,-3.0312 1.11,-5.4296 3.34,-7.1796 z m 22.2,28.4882 c 2.42,0.3125 4.04,1.3204 4.86,3.043 0.47,0.9375 0.7,2.2891 0.7,4.0586 0,3.6094 -1.28,6.2305 -3.83,7.8516 -2.55,1.6289 -6.21,2.4375 -10.97,2.4375 -5.5,0 -9.39,-1.4883 -11.69,-4.4688 -1.29,-1.6484 -2.12,-4.1094 -2.51,-7.3594 h -9.84 c 0.2,7.75 2.7,13.1485 7.52,16.1875 4.82,3.043 10.41,4.5625 16.77,4.5625 7.37,0 13.36,-1.4101 17.97,-4.2226 4.57,-2.8086 6.85,-7.1875 6.85,-13.1172 V 17.8359 c 0,-1.0898 0.22,-1.9726 0.67,-2.6328 0.45,-0.6562 1.4,-1 2.84,-1 0.47,0 1,0.0313 1.58,0.0938 0.58,0.0586 1.21,0.1484 1.88,0.2578 V 6.76563 c -1.64,-0.46875 -2.89,-0.76172 -3.75,-0.87891 -0.86,-0.12109 -2.03,-0.18359 -3.52,-0.18359 -3.63,0 -6.27,1.29296 -7.91,3.87109 -0.86,1.37108 -1.46,3.30078 -1.82,5.80078 -2.15,-2.8086 -5.23,-5.25 -9.26,-7.32031 -4.03,-2.07031 -8.46,-3.10938 -13.3,-3.10938 -5.82,0 -10.58,1.76953 -14.27,5.30079 -3.69,3.5273 -5.54,7.9492 -5.54,13.25 0,5.8203 1.82,10.3203 5.45,13.5195 3.63,3.1992 8.4,5.168 14.3,5.9102 l 16.82,2.0976"
         style="fill:#ffffff;fill-opacity:1;fill-rule:nonzero;stroke:none"
         id="path54" />
      <path
         d="m 1360.82,69.8047 h 10.02 v -8.9102 c 2.97,3.6719 6.11,6.3086 9.43,7.9102 3.32,1.6016 7.01,2.3984 11.07,2.3984 8.91,0 14.92,-3.1093 18.05,-9.3164 1.72,-3.4023 2.58,-8.2617 2.58,-14.5898 V 7.04688 h -10.72 V 46.5938 c 0,3.832 -0.57,6.9101 -1.7,9.2617 -1.88,3.9101 -5.27,5.8593 -10.2,5.8593 -2.5,0 -4.55,-0.25 -6.15,-0.7617 -2.89,-0.8593 -5.43,-2.5781 -7.62,-5.1562 -1.76,-2.0703 -2.9,-4.211 -3.43,-6.4219 -0.53,-2.2109 -0.79,-5.3594 -0.79,-9.4609 V 7.04688 h -10.55 V 69.8047 h 0.01"
         style="fill:#ffffff;fill-opacity:1;fill-rule:nonzero;stroke:none"
         id="path56" />
      <path
         d="m 1442.1,16.5352 c 2.23,-1.7618 4.86,-2.6289 7.91,-2.6289 3.71,0 7.3,0.8593 10.78,2.5703 5.86,2.8476 8.79,7.5078 8.79,13.9765 v 8.4805 c -1.29,-0.8281 -2.94,-1.5078 -4.97,-2.0586 -2.03,-0.5508 -4.01,-0.9414 -5.97,-1.1719 l -6.37,-0.8164 c -3.82,-0.5117 -6.69,-1.3008 -8.62,-2.4023 -3.26,-1.8281 -4.89,-4.7578 -4.89,-8.7696 0,-3.0312 1.12,-5.4296 3.34,-7.1796 z m 22.21,28.4882 c 2.42,0.3125 4.04,1.3204 4.86,3.043 0.47,0.9375 0.7,2.2891 0.7,4.0586 0,3.6094 -1.28,6.2305 -3.83,7.8516 -2.55,1.6289 -6.21,2.4375 -10.97,2.4375 -5.5,0 -9.39,-1.4883 -11.69,-4.4688 -1.29,-1.6484 -2.12,-4.1094 -2.51,-7.3594 h -9.84 c 0.2,7.75 2.7,13.1485 7.52,16.1875 4.82,3.043 10.41,4.5625 16.77,4.5625 7.37,0 13.36,-1.4101 17.97,-4.2226 4.57,-2.8086 6.85,-7.1875 6.85,-13.1172 V 17.8359 c 0,-1.0898 0.22,-1.9726 0.67,-2.6328 0.45,-0.6562 1.4,-1 2.84,-1 0.47,0 1,0.0313 1.58,0.0938 0.58,0.0586 1.21,0.1484 1.88,0.2578 V 6.76563 c -1.64,-0.46875 -2.89,-0.76172 -3.75,-0.87891 -0.86,-0.12109 -2.03,-0.18359 -3.52,-0.18359 -3.63,0 -6.27,1.29296 -7.91,3.87109 -0.86,1.37108 -1.46,3.30078 -1.82,5.80078 -2.15,-2.8086 -5.23,-5.25 -9.26,-7.32031 -4.03,-2.07031 -8.46,-3.10938 -13.3,-3.10938 -5.82,0 -10.58,1.76953 -14.27,5.30079 -3.69,3.5273 -5.54,7.9492 -5.54,13.25 0,5.8203 1.82,10.3203 5.45,13.5195 3.63,3.1992 8.4,5.168 14.3,5.9102 l 16.82,2.0976"
         style="fill:#ffffff;fill-opacity:1;fill-rule:nonzero;stroke:none"
         id="path58" />
      <path
         d="m 1511.47,20.8164 c 2.84,-4.5312 7.38,-6.8008 13.64,-6.8008 4.86,0 8.85,2.0977 11.98,6.3008 3.13,4.1992 4.69,10.2188 4.69,18.0781 0,7.9297 -1.61,13.8008 -4.84,17.6094 -3.23,3.8125 -7.21,5.7109 -11.95,5.7109 -5.28,0 -9.57,-2.0312 -12.85,-6.0898 -3.29,-4.0586 -4.93,-10.0391 -4.93,-17.9297 0.01,-6.7187 1.42,-12.3515 4.26,-16.8789 z m 23.54,47.0469 c 1.87,-1.168 3.99,-3.2188 6.36,-6.1485 v 31.6993 h 10.14 V 7.04688 h -9.49 v 8.72652 c -2.45,-3.8671 -5.35,-6.66012 -8.7,-8.37887 -3.35,-1.71875 -7.18,-2.57812 -11.5,-2.57812 -6.97,0 -13,2.9375 -18.1,8.82029 -5.1,5.8789 -7.65,13.6992 -7.65,23.4688 0,9.1406 2.32,17.0586 6.97,23.7578 4.65,6.7031 11.29,10.0508 19.94,10.0508 4.8,0 8.81,-1.0196 12.03,-3.0508"
         style="fill:#ffffff;fill-opacity:1;fill-rule:nonzero;stroke:none"
         id="path60" />
      <path
         d="m 1581.82,16.5352 c 2.23,-1.7618 4.86,-2.6289 7.91,-2.6289 3.71,0 7.3,0.8593 10.78,2.5703 5.86,2.8476 8.79,7.5078 8.79,13.9765 v 8.4805 c -1.29,-0.8281 -2.94,-1.5078 -4.97,-2.0586 -2.03,-0.5508 -4.01,-0.9414 -5.97,-1.1719 l -6.37,-0.8164 c -3.82,-0.5117 -6.69,-1.3008 -8.62,-2.4023 -3.26,-1.8281 -4.89,-4.7578 -4.89,-8.7696 0,-3.0312 1.11,-5.4296 3.34,-7.1796 z m 22.21,28.4882 c 2.42,0.3125 4.04,1.3204 4.86,3.043 0.47,0.9375 0.7,2.2891 0.7,4.0586 0,3.6094 -1.28,6.2305 -3.83,7.8516 -2.55,1.6289 -6.21,2.4375 -10.97,2.4375 -5.5,0 -9.39,-1.4883 -11.69,-4.4688 -1.29,-1.6484 -2.12,-4.1094 -2.51,-7.3594 h -9.84 c 0.2,7.75 2.7,13.1485 7.52,16.1875 4.82,3.043 10.41,4.5625 16.77,4.5625 7.37,0 13.36,-1.4101 17.97,-4.2226 4.57,-2.8086 6.85,-7.1875 6.85,-13.1172 V 17.8359 c 0,-1.0898 0.22,-1.9726 0.67,-2.6328 0.45,-0.6562 1.4,-1 2.84,-1 0.47,0 1,0.0313 1.58,0.0938 0.58,0.0586 1.21,0.1484 1.88,0.2578 V 6.76563 c -1.64,-0.46875 -2.89,-0.76172 -3.75,-0.87891 -0.86,-0.12109 -2.03,-0.18359 -3.52,-0.18359 -3.63,0 -6.27,1.29296 -7.91,3.87109 -0.86,1.37108 -1.46,3.30078 -1.82,5.80078 -2.15,-2.8086 -5.23,-5.25 -9.26,-7.32031 -4.03,-2.07031 -8.46,-3.10938 -13.3,-3.10938 -5.82,0 -10.58,1.76953 -14.27,5.30079 -3.69,3.5273 -5.54,7.9492 -5.54,13.25 0,5.8203 1.82,10.3203 5.45,13.5195 3.63,3.1992 8.4,5.168 14.3,5.9102 l 16.82,2.0976"
         style="fill:#ffffff;fill-opacity:1;fill-rule:nonzero;stroke:none"
         id="path62" />
    </g>
  </g>
</svg>
