<?xml version="1.0" encoding="utf-8"?>
<!-- Generator: Adobe Illustrator 27.7.0, SVG Export Plug-In . SVG Version: 6.00 Build 0)  -->
<svg version="1.1" id="Layer_1" xmlns="http://www.w3.org/2000/svg" xmlns:xlink="http://www.w3.org/1999/xlink" x="0px" y="0px"
	 viewBox="0 0 305.05 220.2" style="enable-background:new 0 0 305.05 220.2;" xml:space="preserve">
<style type="text/css">
	.st0{fill:none;stroke:#010101;stroke-linecap:round;stroke-linejoin:round;stroke-miterlimit:10;}
</style>
<g>
	<path class="st0" d="M85.37,216.31c-4.55-12.91-5.97-26.91-4.11-40.47c9.36,1.62,18.73,3.23,28.09,4.85
		c1.49-7.18,2.61-14.43,3.35-21.73c-5.25-2.2-10.51-4.4-15.77-6.61c6.32-0.53,12.65-1.07,18.97-1.6c0.65-2.98,0.46-6.15-0.55-9.03
		c5.64-0.57,11.28-1.15,16.92-1.72c-7.16-10.8-14.33-21.61-21.49-32.41c3.2-10.05,4.92-20.76,3.3-31.18
		c-1.62-10.42-6.84-20.54-15.43-26.66c-11.82-8.42-27.54-8.1-42.02-7.31c-5.37,0.29-10.84,0.63-15.88,2.51
		c-5.22,1.95-9.68,5.45-14.06,8.9c-5.94,4.68-11.99,9.48-16.16,15.8c-6.46,9.8-7.65,22.1-7.81,33.84
		c-0.16,11.96,0.8,24.7,7.86,34.36c6.86,9.4,19.09,15.36,21.83,26.67c0.93,3.86,0.6,7.9,0.22,11.85
		c-0.98,10.15-2.23,20.28-3.48,30.41"/>
	<path class="st0" d="M58.41,62.8c4.85,0.25,9.71,0.51,14.56,0.76c1.58,0.08,3.54,0.47,3.92,2c0.63,2.55-3.5,3.09-5.99,2.26
		c-10.8-3.62-22.99-7.52-33.14-2.34c9.72-1.34,19.56-1.81,29.36-1.41c2,0.08,4.4,0.46,5.2,2.3c0.52,1.18,0.14,2.56-0.42,3.73
		c-2.76,5.82-10.09,9.02-16.23,7.07c-1.12-0.36-2.25-0.9-2.93-1.87c-1.51-2.16,0.23-5.49,2.79-6.12c2.56-0.63,5.27,0.86,6.85,2.97
		c1.58,2.11,2.26,4.75,2.88,7.31c0.94,3.88,1.84,7.9,1.15,11.83s-3.35,7.79-7.25,8.65c-3.28,0.72-6.6-0.75-9.64-2.19
		c-3.64-1.73-7.45-3.59-9.77-6.9c-2.31-3.3-2.44-8.51,0.82-10.88c3.69-2.68,9.31,0.04,11.17,4.21c1.85,4.17,1.01,8.99-0.09,13.42
		c-1.27,5.09-3.52,10.82-8.54,12.35c-5.78,1.76-11.47-3.24-14.34-8.56c-4.69-8.71-5.51-19.42-2.19-28.74
		c-2.26,4.47-4.58,9.22-4.28,14.22c0.68,11.32,13.43,17.32,20.11,26.48c2.01-2.03,3.65-4.41,4.83-7.01
		c8.76,5.14,17.97,9.51,27.5,13.03c-6.6-0.56-13.03-3.01-18.32-7.01c-0.76-0.57-1.55-1.28-1.63-2.22c-0.07-0.8,0.39-1.54,0.9-2.15
		c3.51-4.21,9.94-5.14,15.07-3.22s9.08,6.19,11.92,10.88c0.7,1.15,1.35,2.56,0.77,3.77c-0.38,0.79-1.2,1.27-2,1.63
		c-7.32,3.29-16,0.55-22.8-3.7c-4.87-3.05-9.52-7.26-10.77-12.88c-1.04-4.67,0.48-9.57,2.78-13.76c5.4-9.84,15.92-17.19,27.15-17.04
		c2.72,0.04,5.52,0.53,7.76,2.08c4.65,3.21,5.42,9.68,5.6,15.33c0.11,3.35,0.01,7.11-2.37,9.47c-1.39,1.38-3.36,2.03-5.31,2.23
		c-6.69,0.67-13.56-4.36-14.61-11c-1.05-6.64,4.27-13.7,10.97-14.21c2.29-0.17,4.79,0.45,6.21,2.25c1.13,1.43,1.39,3.35,1.54,5.17
		c0.6,7.32,0.06,14.73-1.6,21.88c-1.05,4.51-2.9,9.35-7.01,11.47c-4.9,2.52-10.87,0.15-15.49-2.84
		c-9.32-6.03-16.93-14.67-21.74-24.67c-3.23-6.71-4.9-15.5,0.1-21.01c4.34-4.79,11.96-4.91,18.11-2.89c1.63,0.54,3.29,1.25,4.36,2.6
		c2.7,3.43-0.39,8.88-4.57,10.15c-4.18,1.27-8.64-0.22-12.78-1.62c-4.14-1.4-8.71-2.7-12.78-1.1c-3.58,1.42-5.94,4.77-8.6,7.56
		c-2.66,2.79-6.47,5.26-10.16,4.13c-3.7-2.77-4.43-8.32-2.69-12.6c1.74-4.28,5.43-7.46,9.32-9.96c4.79-3.07,10.04-5.34,15.26-7.59
		c8.7-3.75,18.24-7.58,27.4-5.14c10.19,2.72,16.79,12.33,22.18,21.4c4.47,7.53,8.84,15.5,9.47,24.23c0.23,3.14-0.07,6.42-1.56,9.2
		c-3.62,6.76-12.84,8.24-20.35,6.71c-8.83-1.8-17.3-7.03-21.28-15.11c-3.99-8.08-2.45-19.03,4.72-24.49
		c3.86-2.94,9.93-3.83,13.27-0.31c1.36,1.43,2.05,3.37,2.46,5.29c2.08,9.8-3.24,20.69-12.25,25.07c-9.01,4.38-20.86,1.84-27.28-5.85
		c17.78-17.45,46.55-22.57,69.26-12.32c1.55-9.53-2.68-19.78-10.5-25.44c-7.82-5.66-18.88-6.48-27.45-2.03
		C75.6,66.11,86.4,73.23,90.87,84.41c3.02,7.55,2.71,16.01,1.46,24.04c-0.87,5.58-2.5,11.63-7.16,14.84
		c-4.61,3.17-10.77,2.58-16.27,1.53c-6.09-1.17-12.1-2.74-17.97-4.71c-3.33-1.12-7.35-4.26-5.49-7.23
		c-2.71,3.21-6.16,5.8-10.01,7.51c-1-8.11-1.03-16.64,2.32-24.09c3.35-7.45,10.75-13.55,18.92-13.25c1.62,0.06,3.32,0.4,4.51,1.5
		c1.09,0.99,1.59,2.46,1.98,3.88c1.34,5.02,1.6,10.33,0.74,15.46c-0.3,1.79-0.78,3.65-2.03,4.97c-3.28,3.47-9.09,1.15-12.94-1.67
		C34.57,96.64,23.91,81.19,19.15,64.05c-0.48-1.73-0.89-3.63-0.14-5.26c1.15-2.52,4.4-3.16,7.17-3.18
		c14.43-0.11,28.59,8.45,35.18,21.29c1.15,2.24,2.11,4.77,1.6,7.24c-0.51,2.47-3.02,4.66-5.44,3.97"/>
	<path class="st0" d="M219.11,216.54c4.55-12.91,5.97-26.91,4.11-40.47c-9.36,1.62-18.73,3.23-28.09,4.85
		c-1.49-7.18-2.61-14.43-3.35-21.73c5.25-2.2,10.51-4.4,15.77-6.6c-6.32-0.54-12.65-1.07-18.97-1.6c-0.65-2.98-0.46-6.15,0.55-9.03
		c-5.64-0.57-11.28-1.14-16.92-1.72c7.16-10.8,14.33-21.61,21.49-32.41c-3.2-10.05-4.92-20.76-3.3-31.18
		c1.62-10.42,6.84-20.54,15.43-26.66c11.82-8.42,27.54-8.1,42.02-7.31c5.37,0.29,10.84,0.63,15.88,2.51
		c5.22,1.95,9.68,5.45,14.06,8.9c5.94,4.68,11.99,9.48,16.16,15.8c6.46,9.8,7.65,22.1,7.81,33.84c0.16,11.96-0.8,24.7-7.85,34.36
		c-6.86,9.4-19.09,15.36-21.83,26.67c-0.93,3.86-0.6,7.9-0.22,11.85c0.98,10.15,2.23,20.28,3.48,30.4"/>
	<path class="st0" d="M246.07,63.04l-14.56,0.76c-1.58,0.08-3.54,0.47-3.92,2c-0.63,2.55,3.5,3.09,5.99,2.26
		c10.8-3.62,22.99-7.52,33.14-2.34c-9.72-1.34-19.56-1.81-29.36-1.41c-2,0.08-4.4,0.46-5.2,2.3c-0.52,1.18-0.14,2.56,0.42,3.73
		c2.76,5.82,10.09,9.02,16.23,7.07c1.12-0.36,2.25-0.9,2.93-1.87c1.51-2.16-0.23-5.49-2.79-6.12c-2.56-0.63-5.27,0.86-6.85,2.97
		c-1.58,2.11-2.26,4.75-2.88,7.31c-0.94,3.88-1.84,7.9-1.15,11.83c0.69,3.93,3.35,7.79,7.25,8.65c3.28,0.72,6.6-0.75,9.64-2.19
		c3.64-1.73,7.45-3.59,9.77-6.9c2.31-3.3,2.44-8.51-0.82-10.88c-3.69-2.68-9.31,0.04-11.17,4.21c-1.85,4.17-1.01,8.99,0.09,13.42
		c1.27,5.09,3.52,10.82,8.54,12.35c5.78,1.76,11.47-3.24,14.34-8.56c4.69-8.71,5.51-19.42,2.19-28.74
		c2.26,4.47,4.58,9.22,4.28,14.22c-0.68,11.32-13.44,17.32-20.11,26.48c-2.01-2.03-3.65-4.42-4.83-7.01
		c-8.76,5.14-17.97,9.51-27.5,13.03c6.6-0.56,13.03-3.01,18.32-7.01c0.76-0.57,1.55-1.28,1.63-2.22c0.07-0.79-0.39-1.54-0.9-2.15
		c-3.51-4.21-9.94-5.14-15.08-3.22s-9.08,6.19-11.92,10.88c-0.7,1.15-1.35,2.56-0.77,3.77c0.38,0.79,1.2,1.27,2,1.63
		c7.32,3.29,15.99,0.55,22.8-3.7c4.87-3.05,9.52-7.26,10.77-12.88c1.04-4.67-0.47-9.57-2.78-13.76
		c-5.4-9.84-15.92-17.19-27.15-17.04c-2.72,0.04-5.52,0.53-7.76,2.08c-4.66,3.21-5.42,9.67-5.61,15.33
		c-0.11,3.35-0.01,7.11,2.37,9.47c1.39,1.38,3.36,2.03,5.31,2.23c6.69,0.67,13.57-4.36,14.61-11c1.05-6.64-4.27-13.7-10.97-14.21
		c-2.29-0.17-4.79,0.45-6.21,2.25c-1.13,1.43-1.39,3.35-1.54,5.16c-0.6,7.32-0.06,14.73,1.6,21.88c1.05,4.51,2.9,9.35,7.01,11.47
		c4.9,2.52,10.87,0.15,15.49-2.84c9.32-6.03,16.93-14.67,21.74-24.67c3.23-6.71,4.9-15.49-0.1-21.01
		c-4.34-4.79-11.96-4.91-18.11-2.89c-1.63,0.54-3.29,1.25-4.35,2.6c-2.7,3.44,0.39,8.88,4.57,10.15c4.18,1.27,8.64-0.22,12.78-1.62
		c4.14-1.4,8.71-2.7,12.78-1.1c3.58,1.42,5.94,4.77,8.6,7.56c2.66,2.79,6.47,5.26,10.16,4.13c3.7-2.77,4.43-8.32,2.69-12.6
		c-1.74-4.28-5.43-7.46-9.32-9.96c-4.79-3.07-10.04-5.34-15.26-7.59c-8.7-3.75-18.24-7.58-27.4-5.14
		c-10.19,2.72-16.79,12.33-22.18,21.4c-4.47,7.53-8.84,15.5-9.47,24.23c-0.23,3.14,0.07,6.42,1.56,9.2
		c3.62,6.76,12.84,8.24,20.35,6.71c8.83-1.8,17.3-7.03,21.28-15.11c3.99-8.08,2.45-19.03-4.72-24.49
		c-3.86-2.94-9.93-3.82-13.27-0.31c-1.36,1.43-2.05,3.36-2.47,5.29c-2.08,9.8,3.24,20.69,12.25,25.07
		c9.01,4.38,20.86,1.84,27.28-5.85c-17.78-17.45-46.55-22.57-69.26-12.32c-1.55-9.53,2.68-19.78,10.5-25.44
		c7.82-5.66,18.88-6.48,27.45-2.03c-10.19,6.41-20.99,13.54-25.46,24.71c-3.02,7.55-2.7,16.01-1.46,24.04
		c0.87,5.59,2.5,11.63,7.16,14.84c4.61,3.17,10.77,2.58,16.27,1.53c6.09-1.17,12.1-2.74,17.97-4.71c3.33-1.12,7.35-4.26,5.49-7.23
		c2.71,3.21,6.16,5.8,10.01,7.51c1-8.11,1.03-16.64-2.32-24.09c-3.34-7.45-10.75-13.55-18.92-13.25c-1.62,0.06-3.32,0.4-4.51,1.5
		c-1.09,0.99-1.59,2.46-1.97,3.88c-1.34,5.02-1.6,10.33-0.74,15.46c0.3,1.79,0.78,3.65,2.03,4.97c3.28,3.47,9.09,1.15,12.94-1.67
		c14.35-10.52,25.02-25.96,29.77-43.11c0.48-1.73,0.89-3.63,0.14-5.26c-1.15-2.52-4.4-3.16-7.17-3.18
		c-14.43-0.11-28.59,8.45-35.19,21.29c-1.15,2.24-2.11,4.77-1.6,7.24c0.51,2.47,3.02,4.66,5.45,3.97"/>
	<path class="st0" d="M124.87,156.79c34.63,8.65,72.83,1.78,102.26-18.41c-2.73-0.24-5.46-0.48-8.19-0.73
		c3.18-0.35,6.37-0.7,9.55-1.05c0.09,2.48,0.17,4.97,0.26,7.45"/>
	<path class="st0" d="M237.62,41.32C225.13,22.4,203.96,10.3,181.8,5.5c-22.16-4.8-45.3-2.88-67.49,1.74
		c-20.62,4.3-41.88,11.64-55.43,27.77c0.02-2.64,0.05-5.28,0.07-7.92c0.04,2.68,0.07,5.36,0.11,8.04c3.93-2.08,8.54-2.88,12.94-2.23
		"/>
</g>
</svg>
