<?xml version="1.0" encoding="utf-8"?>
<!-- Generator: Adobe Illustrator 27.7.0, SVG Export Plug-In . SVG Version: 6.00 Build 0)  -->
<svg version="1.1" id="Layer_1" xmlns="http://www.w3.org/2000/svg" xmlns:xlink="http://www.w3.org/1999/xlink" x="0px" y="0px"
	 viewBox="0 0 247.36 370.49" style="enable-background:new 0 0 247.36 370.49;" xml:space="preserve">
<style type="text/css">
	.st0{fill:none;stroke:#010101;stroke-linecap:round;stroke-linejoin:round;stroke-miterlimit:10;}
</style>
<g>
	<path class="st0" d="M11.56,65.92c-0.4-3.29-0.36-7.23,2.2-9.18c2.19-1.67,5.49-0.98,7.4,1.03c1.91,2.01,2.61,5,2.56,7.84
		c-0.02,1.4-0.32,2.98-1.44,3.72c-1.26,0.84-2.91,0.24-4.29-0.38"/>
	<path class="st0" d="M13.29,56.94c0.35-2.86,2.31-7.83,5.05-8.71c2.74-0.88,5.76-0.48,8.45,0.53c0.27,0.1,0.56,0.22,0.73,0.46
		c0.15,0.2,0.2,0.45,0.24,0.69c0.63,3.52,1.25,7.04,1.88,10.56c0.15,0.83,0.23,1.83-0.42,2.36c-0.39,0.32-0.95,0.36-1.44,0.23
		c-3.15-0.78-2.88-6.7-5.98-7.64"/>
	<path class="st0" d="M22.99,47.7c-0.29-2.62,1.81-4.86,3.93-6.42c2.11-1.56,4.4-2.86,6.82-3.89c0.27-0.11,0.57-0.23,0.84-0.12
		c0.29,0.12,0.43,0.44,0.51,0.74c0.64,2.25-0.18,4.71-1.58,6.57c-1.41,1.86-3.64,3.26-5.55,4.6"/>
	<path class="st0" d="M12.5,74.58c0.39,0.48,0.87,0.87,1.34,1.25c1.34,1.08,2.68,2.17,4.01,3.25c0.51,0.41,1.04,0.83,1.67,0.98
		c1.55,0.36,3.02-1.16,3.23-2.73c0.21-1.58-0.45-3.12-1.1-4.57"/>
	<path class="st0" d="M206.48,184.14c0.93-0.97,2.07-1.79,3.39-2.03c2.63-0.47,5.27,1.71,5.81,4.32c0.54,2.62-0.69,5.38-2.65,7.2
		c-1.96,1.82-4.54,2.83-7.13,3.47c-2.15,0.53-4.73,1.15-5.49,3.23"/>
	<path class="st0" d="M238.4,282.24c-4.95-9.14-15.87-12.99-23.68-19.84c-1.61-1.41-3.12-3.01-3.97-4.97
		c-1.09-2.54-0.96-5.41-0.8-8.17c0.25-4.52,0.29-7.08,1.3-12.02c1.27-6.21,0.22-13.17,5.18-17.12c2.45-1.95,5.41-3.12,8.15-4.64
		c10.9-6.01,18.22-17.73,19.68-30.09c1.46-12.36-1.93-25.81-9.73-35.52l-4.55-5.25c-0.5-0.58-1.06-1.12-1.68-1.57
		c-6.54-4.78-14.38-7.47-22.07-10.08c-3.35-1.13-6.88-2.28-10.35-1.6c-2.28,0.45-4.33,1.67-6.33,2.86
		c-4.31,2.58-8.63,5.16-12.94,7.73c-0.9,0.54-1.87,1.15-2.26,2.12c-0.34,0.83-0.2,1.75-0.14,2.64c0.15,2.43-0.43,4.99-2.02,6.83
		c-3.01,3.49-8.43,3.44-12.64,4.94c-5.29,1.89-6.3,9-1.81,12.38l-10.81,17.51c-0.91,2.01-1.82,4.11-0.98,6.15
		c0.84,2.05,2.51,3.63,4.23,5.01c3.06,2.46,6.46,4.49,10.07,6.04c1.74,0.75,3.6,1.43,4.86,2.85c1,1.13,1.49,2.6,1.88,4.06
		c1.08,4.09,1.45,8.37,1.1,12.58c-0.12,1.44-1.63,2.34-2.96,1.77c-12.19-4.55-24.38-9.11-36.57-13.66
		c-8.11-3.03-16.31-6.08-24.88-7.33c-5.7-0.83-11.48-0.84-17.2-1.37c-10.4-0.96-20.64-3.64-30.18-7.89
		c-1.16-0.52-2.33-1.07-3.27-1.93c-1.11-1.02-1.81-2.39-2.44-3.75c-10.24-22.02-8.57-47.48-6.69-71.69c0.1-1.28,0.23-2.64,0.99-3.67
		c0.8-1.08,2.13-1.6,3.17-2.45c2.76-2.25,3.07-6.28,3.15-9.84c0.13-5.69,0.27-11.38,0.4-17.07c0.05-2.23,0.09-4.52-0.71-6.6
		c-0.6-1.54-1.63-2.87-2.29-4.38c-0.94-2.16-1.08-4.58-1.24-6.93c-0.46-6.69-1.26-13.36-2.4-19.97c-0.14-0.79-0.33-1.67-0.98-2.14
		c-1.08-0.77-2.56,0.09-3.5,1.03c-3.39,3.42-5.1,8.43-4.51,13.21c0.67,5.38,3.91,11.37,0.68,15.73c-1.06,1.43-2.65,2.35-3.87,3.65
		c-1.21,1.3-2.01,3.33-1.05,4.82"/>
	<path class="st0" d="M30.54,38.58l10.01-25.9l0.32-1.18c-0.04-1.58-0.08-3.16-0.12-4.74c-0.01-0.42-0.02-0.85,0.1-1.25
		c0.41-1.31,2.02-1.79,3.39-1.83c1.13-0.04,2.25,0.08,3.37,0.25c0.8,0.12,1.48,0.61,2.2,1c0.57,0.31,1.19,0.43,1.68,0.86
		c1.13,0.98,2.36,1.89,3.22,3.12c0.86,1.23,1.3,2.88,0.66,4.24c-0.79,1.66-2.8,2.26-4.58,2.69l-5.71,13.84
		c-1.31,4.17-2.91,8.25-4.51,12.32c-3.24,8.25-6.48,16.5-9.72,24.76c-0.73,1.85-1.48,3.75-2.83,5.21
		c-7.65,8.29-10.46-13.37-20.07-3.59c-6.17,6.28-3.35,16.7-0.16,24.91c6.25,16.1,12.45,32.6,13.21,49.86
		c0.96,21.89-6.86,44.48-0.11,65.33c4.17,12.89,13.58,23.53,24.29,31.83c10.71,8.3,22.82,14.58,34.49,21.46
		c8.11,4.78,16.24,10.04,21.78,17.66c8.75,12.04,9.69,28.25,6.72,42.84c-2.97,14.58-9.41,28.18-14.37,42.21
		c-0.19,0.54-0.34,1.25,0.11,1.6c0.45,0.36,1.12-0.65,0.55-0.7"/>
</g>
</svg>
